<?xml version="1.0" encoding="UTF-8" standalone="no"?>
<!-- Created with Inkscape (http://www.inkscape.org/) -->

<svg
   xmlns:dc="http://purl.org/dc/elements/1.1/"
   xmlns:cc="http://creativecommons.org/ns#"
   xmlns:rdf="http://www.w3.org/1999/02/22-rdf-syntax-ns#"
   xmlns:svg="http://www.w3.org/2000/svg"
   xmlns="http://www.w3.org/2000/svg"
   xmlns:sodipodi="http://sodipodi.sourceforge.net/DTD/sodipodi-0.dtd"
   xmlns:inkscape="http://www.inkscape.org/namespaces/inkscape"
   width="200.96312"
   height="108.95583"
   id="svg2"
   version="1.1"
   inkscape:version="0.48.1 "
   sodipodi:docname="distance_to_line_vop.svg"
   inkscape:export-filename="E:\dev\src\houdini\help\documents\nodes\images\distance_to_line_vop.png"
   inkscape:export-xdpi="90"
   inkscape:export-ydpi="90">
  <defs
     id="defs4">
    <marker
       inkscape:stockid="Arrow2Mend"
       orient="auto"
       refY="0"
       refX="0"
       id="Arrow2Mend"
       style="overflow:visible">
      <path
         id="path3814"
         style="font-size:12px;fill-rule:evenodd;stroke-width:0.625;stroke-linejoin:round"
         d="M 8.7185878,4.0337352 -2.2072895,0.01601326 8.7185884,-4.0017078 c -1.7454984,2.3720609 -1.7354408,5.6174519 -6e-7,8.035443 z"
         transform="scale(-0.6,-0.6)"
         inkscape:connector-curvature="0" />
    </marker>
    <marker
       inkscape:stockid="Arrow2Send"
       orient="auto"
       refY="0"
       refX="0"
       id="Arrow2Send"
       style="overflow:visible">
      <path
         id="path3820"
         style="font-size:12px;fill-rule:evenodd;stroke-width:0.625;stroke-linejoin:round"
         d="M 8.7185878,4.0337352 -2.2072895,0.01601326 8.7185884,-4.0017078 c -1.7454984,2.3720609 -1.7354408,5.6174519 -6e-7,8.035443 z"
         transform="matrix(-0.3,0,0,-0.3,0.69,0)"
         inkscape:connector-curvature="0" />
    </marker>
  </defs>
  <sodipodi:namedview
     id="base"
     pagecolor="#ffffff"
     bordercolor="#666666"
     borderopacity="1.0"
     inkscape:pageopacity="0.0"
     inkscape:pageshadow="2"
     inkscape:zoom="5.6568542"
     inkscape:cx="75.779391"
     inkscape:cy="33.186258"
     inkscape:document-units="px"
     inkscape:current-layer="layer1"
     showgrid="false"
     fit-margin-top="0"
     fit-margin-left="0"
     fit-margin-right="0"
     fit-margin-bottom="0"
     inkscape:window-width="2560"
     inkscape:window-height="1538"
     inkscape:window-x="-8"
     inkscape:window-y="-8"
     inkscape:window-maximized="1" />
  <metadata
     id="metadata7">
    <rdf:RDF>
      <cc:Work
         rdf:about="">
        <dc:format>image/svg+xml</dc:format>
        <dc:type
           rdf:resource="http://purl.org/dc/dcmitype/StillImage" />
        <dc:title></dc:title>
      </cc:Work>
    </rdf:RDF>
  </metadata>
  <g
     inkscape:label="Layer 1"
     inkscape:groupmode="layer"
     id="layer1"
     transform="translate(-90.393426,-909.63425)">
    <path
       sodipodi:type="arc"
       style="color:#000000;fill:#e1e4de;fill-opacity:1;stroke:none;stroke-width:3;marker:none;visibility:visible;display:inline;overflow:visible;enable-background:accumulate"
       id="path3765"
       sodipodi:cx="70.625"
       sodipodi:cy="72.625"
       sodipodi:rx="5.625"
       sodipodi:ry="5.625"
       d="m 76.25,72.625 c 0,3.106602 -2.518398,5.625 -5.625,5.625 C 67.518398,78.25 65,75.731602 65,72.625 65,69.518398 67.518398,67 70.625,67 c 3.106602,0 5.625,2.518398 5.625,5.625 z"
       transform="matrix(6.4073331,-1.7241962,1.7168397,6.434788,-323.16874,601.56096)" />
    <path
       transform="matrix(6.4073331,-1.7241962,1.7168397,6.434788,-449.48805,635.55314)"
       d="m 76.25,72.625 c 0,3.106602 -2.518398,5.625 -5.625,5.625 C 67.518398,78.25 65,75.731602 65,72.625 65,69.518398 67.518398,67 70.625,67 c 3.106602,0 5.625,2.518398 5.625,5.625 z"
       sodipodi:ry="5.625"
       sodipodi:rx="5.625"
       sodipodi:cy="72.625"
       sodipodi:cx="70.625"
       id="path3761"
       style="color:#000000;fill:#e1e4de;fill-opacity:1;stroke:none;stroke-width:3;marker:none;visibility:visible;display:inline;overflow:visible;enable-background:accumulate"
       sodipodi:type="arc" />
    <rect
       style="color:#000000;fill:#e1e4de;fill-opacity:1;fill-rule:nonzero;stroke:none;stroke-width:3;marker:none;visibility:visible;display:inline;overflow:visible;enable-background:accumulate"
       id="rect3767"
       width="134.43665"
       height="74.923683"
       x="-129.51978"
       y="943.13306"
       transform="matrix(0.9656481,-0.25985333,0.2577883,0.96620142,0,0)" />
    <path
       style="fill:none;stroke:#3465a4;stroke-width:3;stroke-linecap:butt;stroke-linejoin:miter;stroke-miterlimit:4;stroke-opacity:1;stroke-dasharray:3.00000001, 3.00000001;stroke-dashoffset:0.6"
       d="M 128.85995,980.80024 251.63058,947.763"
       id="path2987"
       inkscape:connector-curvature="0" />
    <path
       sodipodi:type="arc"
       style="color:#000000;fill:#729fcf;stroke:none;stroke-width:3;marker:none;visibility:visible;display:inline;overflow:visible;enable-background:accumulate"
       id="path3757"
       sodipodi:cx="70.625"
       sodipodi:cy="72.625"
       sodipodi:rx="5.625"
       sodipodi:ry="5.625"
       d="m 76.25,72.625 c 0,3.106602 -2.518398,5.625 -5.625,5.625 C 67.518398,78.25 65,75.731602 65,72.625 65,69.518398 67.518398,67 70.625,67 c 3.106602,0 5.625,2.518398 5.625,5.625 z"
       transform="matrix(1.0687519,-0.28682284,0.2863712,1.0704374,31.349199,923.72969)" />
    <path
       transform="matrix(1.0687519,-0.28682284,0.2863712,1.0704374,158.9094,889.74003)"
       d="m 76.25,72.625 c 0,3.106602 -2.518398,5.625 -5.625,5.625 C 67.518398,78.25 65,75.731602 65,72.625 65,69.518398 67.518398,67 70.625,67 c 3.106602,0 5.625,2.518398 5.625,5.625 z"
       sodipodi:ry="5.625"
       sodipodi:rx="5.625"
       sodipodi:cy="72.625"
       sodipodi:cx="70.625"
       id="path3759"
       style="color:#000000;fill:#729fcf;stroke:none;stroke-width:3;marker:none;visibility:visible;display:inline;overflow:visible;enable-background:accumulate"
       sodipodi:type="arc" />
    <text
       xml:space="preserve"
       style="font-size:12px;font-style:normal;font-variant:normal;font-weight:normal;font-stretch:normal;text-align:start;line-height:100%;letter-spacing:0px;word-spacing:0px;writing-mode:lr-tb;text-anchor:start;fill:#729fcf;fill-opacity:1;stroke:none;font-family:Calibri;-inkscape-font-specification:Calibri"
       x="131.14125"
       y="994.0871"
       id="text3770"
       sodipodi:linespacing="100%"><tspan
         sodipodi:role="line"
         id="tspan3772"
         x="131.14125"
         y="994.0871">p1</tspan></text>
    <text
       sodipodi:linespacing="100%"
       id="text3774"
       y="959.5589"
       x="259.27386"
       style="font-size:12px;font-style:normal;font-variant:normal;font-weight:normal;font-stretch:normal;text-align:start;line-height:100%;letter-spacing:0px;word-spacing:0px;writing-mode:lr-tb;text-anchor:start;fill:#729fcf;fill-opacity:1;stroke:none;font-family:Calibri;-inkscape-font-specification:Calibri"
       xml:space="preserve"><tspan
         y="959.5589"
         x="259.27386"
         id="tspan3776"
         sodipodi:role="line">p2</tspan></text>
    <path
       style="fill:none;stroke:#000000;stroke-width:1px;stroke-linecap:butt;stroke-linejoin:miter;stroke-opacity:1;marker-end:url(#Arrow2Mend)"
       d="m 162.70531,933.87167 10.18065,34.35336"
       id="path3782"
       inkscape:connector-curvature="0"
       sodipodi:nodetypes="cc" />
    <path
       sodipodi:nodetypes="cc"
       inkscape:connector-curvature="0"
       id="path4230"
       d="m 240.45586,988.78021 -9.96055,-34.57382"
       style="fill:none;stroke:#000000;stroke-width:1px;stroke-linecap:butt;stroke-linejoin:miter;stroke-opacity:1;marker-end:url(#Arrow2Mend)" />
    <path
       sodipodi:nodetypes="cc"
       inkscape:connector-curvature="0"
       id="path4234"
       d="m 98.920714,961.54048 27.809526,19.53111"
       style="fill:none;stroke:#000000;stroke-width:1px;stroke-linecap:butt;stroke-linejoin:miter;stroke-opacity:1;marker-end:url(#Arrow2Mend)" />
    <text
       xml:space="preserve"
       style="font-size:12px;font-style:normal;font-variant:normal;font-weight:normal;font-stretch:normal;text-align:start;line-height:100%;letter-spacing:0px;word-spacing:0px;writing-mode:lr-tb;text-anchor:start;fill:#000000;fill-opacity:1;stroke:none;font-family:Calibri;-inkscape-font-specification:Calibri"
       x="169.8824"
       y="951.953"
       id="text4236"
       sodipodi:linespacing="100%"><tspan
         sodipodi:role="line"
         id="tspan4238"
         x="169.8824"
         y="951.953">1.0</tspan></text>
    <text
       sodipodi:linespacing="100%"
       id="text4240"
       y="977.76245"
       x="217.78888"
       style="font-size:12px;font-style:normal;font-variant:normal;font-weight:normal;font-stretch:normal;text-align:start;line-height:100%;letter-spacing:0px;word-spacing:0px;writing-mode:lr-tb;text-anchor:start;fill:#000000;fill-opacity:1;stroke:none;font-family:Calibri;-inkscape-font-specification:Calibri"
       xml:space="preserve"><tspan
         y="977.76245"
         x="217.78888"
         id="tspan4242"
         sodipodi:role="line">1.0</tspan></text>
    <text
       xml:space="preserve"
       style="font-size:12px;font-style:normal;font-variant:normal;font-weight:normal;font-stretch:normal;text-align:start;line-height:100%;letter-spacing:0px;word-spacing:0px;writing-mode:lr-tb;text-anchor:start;fill:#000000;fill-opacity:1;stroke:none;font-family:Calibri;-inkscape-font-specification:Calibri"
       x="97.403954"
       y="979.88373"
       id="text4244"
       sodipodi:linespacing="100%"><tspan
         sodipodi:role="line"
         id="tspan4246"
         x="97.403954"
         y="979.88373">1.0</tspan></text>
    <path
       transform="matrix(1.0687519,-0.28682284,0.2863712,1.0704374,66.833666,876.65421)"
       d="m 76.25,72.625 c 0,3.106602 -2.518398,5.625 -5.625,5.625 C 67.518398,78.25 65,75.731602 65,72.625 65,69.518398 67.518398,67 70.625,67 c 3.106602,0 5.625,2.518398 5.625,5.625 z"
       sodipodi:ry="5.625"
       sodipodi:rx="5.625"
       sodipodi:cy="72.625"
       sodipodi:cx="70.625"
       id="path3780"
       style="color:#000000;fill:#ef2929;fill-opacity:1;stroke:none;stroke-width:3;marker:none;visibility:visible;display:inline;overflow:visible;enable-background:accumulate"
       sodipodi:type="arc" />
    <path
       sodipodi:type="arc"
       style="color:#000000;fill:#ef2929;fill-opacity:1;stroke:none;stroke-width:3;marker:none;visibility:visible;display:inline;overflow:visible;enable-background:accumulate"
       id="path4228"
       sodipodi:cx="70.625"
       sodipodi:cy="72.625"
       sodipodi:rx="5.625"
       sodipodi:ry="5.625"
       d="m 76.25,72.625 c 0,3.106602 -2.518398,5.625 -5.625,5.625 C 67.518398,78.25 65,75.731602 65,72.625 65,69.518398 67.518398,67 70.625,67 c 3.106602,0 5.625,2.518398 5.625,5.625 z"
       transform="matrix(-1.0687519,0.28682284,-0.2863712,-1.0704374,336.98782,1045.9976)" />
    <path
       sodipodi:type="arc"
       style="color:#000000;fill:#ef2929;fill-opacity:1;stroke:none;stroke-width:3;marker:none;visibility:visible;display:inline;overflow:visible;enable-background:accumulate"
       id="path4232"
       sodipodi:cx="70.625"
       sodipodi:cy="72.625"
       sodipodi:rx="5.625"
       sodipodi:ry="5.625"
       d="m 76.25,72.625 c 0,3.106602 -2.518398,5.625 -5.625,5.625 C 67.518398,78.25 65,75.731602 65,72.625 65,69.518398 67.518398,67 70.625,67 c 3.106602,0 5.625,2.518398 5.625,5.625 z"
       transform="matrix(-0.60865189,0.92546047,0.92400326,0.60961176,73.604483,851.27494)" />
  </g>
</svg>
