<?xml version="1.0" encoding="UTF-8" standalone="no"?>
<!-- Created with Inkscape (http://www.inkscape.org/) -->
<svg
   xmlns:dc="http://purl.org/dc/elements/1.1/"
   xmlns:cc="http://web.resource.org/cc/"
   xmlns:rdf="http://www.w3.org/1999/02/22-rdf-syntax-ns#"
   xmlns:svg="http://www.w3.org/2000/svg"
   xmlns="http://www.w3.org/2000/svg"
   xmlns:sodipodi="http://sodipodi.sourceforge.net/DTD/sodipodi-0.dtd"
   xmlns:inkscape="http://www.inkscape.org/namespaces/inkscape"
   width="320"
   height="240"
   id="svg2"
   sodipodi:version="0.32"
   inkscape:version="0.45.1"
   sodipodi:docbase="c:\dev\src\houdini\help\documents\nodes\images"
   sodipodi:docname="fov.svg"
   inkscape:output_extension="org.inkscape.output.svg.inkscape"
   version="1.0">
  <defs
     id="defs4" />
  <sodipodi:namedview
     id="base"
     pagecolor="#ffffff"
     bordercolor="#666666"
     borderopacity="1.0"
     gridtolerance="10000"
     guidetolerance="10"
     objecttolerance="10"
     inkscape:pageopacity="0.0"
     inkscape:pageshadow="2"
     inkscape:zoom="1"
     inkscape:cx="184.14796"
     inkscape:cy="102.21029"
     inkscape:document-units="px"
     inkscape:current-layer="layer1"
     inkscape:window-width="1326"
     inkscape:window-height="1041"
     inkscape:window-x="375"
     inkscape:window-y="18"
     width="320px"
     height="240px" />
  <metadata
     id="metadata7">
    <rdf:RDF>
      <cc:Work
         rdf:about="">
        <dc:format>image/svg+xml</dc:format>
        <dc:type
           rdf:resource="http://purl.org/dc/dcmitype/StillImage" />
      </cc:Work>
    </rdf:RDF>
  </metadata>
  <g
     inkscape:label="Layer 1"
     inkscape:groupmode="layer"
     id="layer1">
    <rect
       style="opacity:1;fill:#d3d7cf;fill-opacity:0.67058824;stroke:#babdb6;stroke-width:2;stroke-miterlimit:4;stroke-dasharray:none;stroke-dashoffset:0;stroke-opacity:1"
       id="rect2160"
       width="147.42906"
       height="100.68456"
       x="153.85384"
       y="3.3142958" />
    <path
       style="fill:none;fill-opacity:0.75;fill-rule:evenodd;stroke:#888a85;stroke-width:1;stroke-linecap:butt;stroke-linejoin:miter;stroke-miterlimit:4;stroke-dasharray:none;stroke-opacity:1"
       d="M 153.6138,3.0513612 L 319.14713,185.44014 L 301.30546,3.577227"
       id="path3134"
       sodipodi:nodetypes="ccc" />
    <path
       style="fill:none;fill-opacity:0.75;fill-rule:evenodd;stroke:#888a85;stroke-width:1;stroke-linecap:butt;stroke-linejoin:miter;stroke-miterlimit:4;stroke-dasharray:none;stroke-opacity:1"
       d="M 153.4825,103.99884 L 318.17971,185.76224 L 301.17416,103.97807"
       id="path3136"
       sodipodi:nodetypes="ccc" />
    <path
       sodipodi:type="arc"
       style="opacity:1;fill:#999999;fill-opacity:0.67058824;stroke:#000000;stroke-width:3.86481714;stroke-miterlimit:4;stroke-dasharray:none;stroke-dashoffset:0;stroke-opacity:1"
       id="path5080"
       sodipodi:cx="-17.857143"
       sodipodi:cy="225.93361"
       sodipodi:rx="7.8571429"
       sodipodi:ry="7.8571429"
       d="M -10 225.93361 A 7.8571429 7.8571429 0 1 1  -25.714286,225.93361 A 7.8571429 7.8571429 0 1 1  -10 225.93361 z"
       transform="matrix(8.4614909e-2,0,0,7.8031482e-2,229.07937,36.026644)" />
    <path
       id="path5082"
       style="fill:none;fill-opacity:0.75;fill-rule:evenodd;stroke:#000000;stroke-width:2;stroke-linecap:butt;stroke-linejoin:miter;stroke-miterlimit:4;stroke-dasharray:6.00000003, 2.00000001;stroke-dashoffset:0;stroke-opacity:1"
       d="M 300.91158,53.656568 L 227.38271,53.656568 L 227.47555,53.656568 L 318.55107,186.19032"
       sodipodi:nodetypes="cccc" />
    <path
       style="fill:none;fill-opacity:0.75;fill-rule:evenodd;stroke:#babdb6;stroke-width:2;stroke-linecap:butt;stroke-linejoin:miter;stroke-miterlimit:4;stroke-dasharray:none;stroke-opacity:1"
       d="M 0.76640393,1.4361183 L 137.87534,1.4361183"
       id="path5086" />
    <path
       style="opacity:1;color:#000000;fill:none;fill-opacity:0.75;fill-rule:evenodd;stroke:#888a85;stroke-width:1;stroke-linecap:butt;stroke-linejoin:miter;marker:none;marker-start:none;marker-mid:none;marker-end:none;stroke-miterlimit:4;stroke-dasharray:none;stroke-dashoffset:0;stroke-opacity:1;visibility:visible;display:inline;overflow:visible;enable-background:accumulate"
       d="M 0.76640494,2.4804575 L 68.797547,175.84077 L 136.82869,1.4361183"
       id="path5088"
       sodipodi:nodetypes="ccc" />
    <path
       style="fill:none;fill-opacity:0.75;fill-rule:evenodd;stroke:#000000;stroke-width:2;stroke-linecap:butt;stroke-linejoin:miter;stroke-miterlimit:4;stroke-dasharray:4.00000002, 2.00000001;stroke-dashoffset:0;stroke-opacity:1"
       d="M 68.274236,175.84077 L 68.274236,4.0469664 L 137.87534,4.0469664"
       id="path5090" />
    <path
       style="font-size:6.14009714px;font-style:normal;font-weight:normal;line-height:125%;fill:#000000;fill-opacity:1;stroke:none;stroke-width:1px;stroke-linecap:butt;stroke-linejoin:miter;stroke-opacity:1;font-family:Bitstream Vera Sans"
       d="M 58.949705,14.523626 L 62.748568,14.523626 L 62.748568,15.274664 L 59.844074,15.274664 L 59.844074,17.218531 L 62.465203,17.218531 L 62.465203,17.96957 L 59.844074,17.96957 L 59.844074,21.119516 L 58.949705,21.119516 L 58.949705,14.523626 z M 60.676461,27.273618 C 60.239604,27.273622 59.894252,27.44371 59.640406,27.783881 C 59.386557,28.124063 59.259633,28.590147 59.259636,29.182141 C 59.259633,29.774137 59.38582,30.240221 59.638194,30.580399 C 59.890563,30.920577 60.236652,31.090664 60.676461,31.090664 C 61.110361,31.090664 61.454237,30.919839 61.708087,30.57819 C 61.96193,30.236541 62.088854,29.771191 62.088858,29.182141 C 62.088854,28.596038 61.96193,28.131426 61.708087,27.7883 C 61.454237,27.445183 61.110361,27.273622 60.676461,27.273618 L 60.676461,27.273618 z M 60.676461,26.584428 C 61.38487,26.584434 61.941269,26.814163 62.345659,27.273618 C 62.750038,27.733081 62.952231,28.369254 62.952237,29.182141 C 62.952231,29.992086 62.750038,30.627523 62.345659,31.088455 C 61.941269,31.549386 61.38487,31.77985 60.676461,31.77985 C 59.965095,31.77985 59.407959,31.549386 59.00505,31.088455 C 58.602138,30.627523 58.400684,29.992086 58.400686,29.182141 C 58.400684,28.369254 58.602138,27.733081 59.00505,27.273618 C 59.407959,26.814163 59.965095,26.584434 60.676461,26.584428 L 60.676461,26.584428 z M 62.598029,37.425896 L 62.598029,38.185771 C 62.367792,38.05913 62.136822,37.964146 61.905113,37.900818 C 61.673401,37.837501 61.439477,37.805839 61.203342,37.805833 C 60.674982,37.805839 60.264694,37.972981 59.972475,38.307262 C 59.680254,38.641553 59.534144,39.110583 59.534146,39.714356 C 59.534144,40.318134 59.680254,40.787165 59.972475,41.121449 C 60.264694,41.455737 60.674982,41.62288 61.203342,41.62288 C 61.439477,41.62288 61.673401,41.591219 61.905113,41.527895 C 62.136822,41.464574 62.367792,41.36959 62.598029,41.242944 L 62.598029,41.993982 C 62.370744,42.100011 62.135344,42.179533 61.891831,42.232547 C 61.64831,42.28556 61.389297,42.312067 61.11479,42.312069 C 60.368002,42.312067 59.774709,42.077922 59.334905,41.609627 C 58.895097,41.141331 58.675195,40.509576 58.675197,39.714356 C 58.675195,38.90736 58.897311,38.27266 59.341546,37.810252 C 59.785777,37.347852 60.394569,37.11665 61.167923,37.116646 C 61.418815,37.11665 61.663808,37.142422 61.902901,37.193959 C 62.141985,37.245505 62.373696,37.322818 62.598029,37.425896 L 62.598029,37.425896 z M 60.999674,50.228904 C 60.341438,50.228907 59.885398,50.304009 59.631553,50.454215 C 59.377703,50.604425 59.25078,50.860662 59.250781,51.222926 C 59.25078,51.51156 59.345972,51.740554 59.53636,51.909907 C 59.726744,52.079259 59.985756,52.163934 60.313398,52.163933 C 60.76501,52.163934 61.127333,52.004154 61.400371,51.684593 C 61.673401,51.365036 61.809918,50.940184 61.80992,50.410037 L 61.80992,50.228904 L 60.999674,50.228904 z M 62.624596,49.893145 L 62.624596,52.716169 L 61.80992,52.716169 L 61.80992,51.96513 C 61.62396,52.265547 61.39225,52.487176 61.114792,52.63002 C 60.837327,52.772864 60.497879,52.844287 60.096448,52.844287 C 59.58875,52.844287 59.185103,52.702179 58.885506,52.417962 C 58.585905,52.133746 58.436105,51.753072 58.436105,51.27594 C 58.436105,50.719291 58.622802,50.299591 58.996193,50.016845 C 59.369587,49.734103 59.926723,49.592731 60.667605,49.592728 L 61.80992,49.592728 L 61.80992,49.513209 C 61.809918,49.139165 61.686683,48.849793 61.440218,48.645096 C 61.193746,48.440404 60.847659,48.338056 60.40195,48.338052 C 60.118584,48.338056 59.842598,48.371927 59.573993,48.439664 C 59.305385,48.507409 59.047112,48.60902 58.799166,48.744497 L 58.799166,47.993458 C 59.097291,47.878599 59.386557,47.792449 59.666972,47.735012 C 59.947384,47.677586 60.220418,47.648867 60.486075,47.648863 C 61.203339,47.648867 61.739076,47.834419 62.093287,48.205516 C 62.447488,48.576622 62.624591,49.139165 62.624596,49.893145 L 62.624596,49.893145 z M 60.269125,56.374166 L 61.083798,56.374166 L 61.083798,63.248384 L 60.269125,63.248384 L 60.269125,56.374166 z M 59.038256,77.716932 L 59.932626,77.716932 L 59.932626,83.56178 L 63.151478,83.56178 L 63.151478,84.31282 L 59.038256,84.31282 L 59.038256,77.716932 z M 62.978803,92.167804 L 62.978803,92.565414 L 59.233069,92.565414 C 59.268488,93.125014 59.437475,93.551338 59.740028,93.844389 C 60.042577,94.137443 60.463935,94.283968 61.004101,94.283968 C 61.316981,94.283968 61.620268,94.24568 61.91397,94.169103 C 62.20766,94.092528 62.499143,93.977663 62.788415,93.824508 L 62.788415,94.593219 C 62.496191,94.71692 62.196592,94.811168 61.889619,94.875964 C 61.582636,94.940759 61.271229,94.973156 60.955397,94.973156 C 60.164334,94.973156 59.537833,94.743426 59.075891,94.283968 C 58.613945,93.824508 58.382974,93.203062 58.382974,92.419625 C 58.382974,91.609682 58.602138,90.966883 59.040471,90.491221 C 59.478799,90.015567 60.069881,89.777739 60.813715,89.777733 C 61.480802,89.777739 62.008419,89.992005 62.396576,90.420536 C 62.784721,90.849072 62.978798,91.431496 62.978803,92.167804 L 62.978803,92.167804 z M 62.164128,91.929239 C 62.158221,91.484509 62.033509,91.129607 61.789997,90.864532 C 61.546476,90.599463 61.224,90.466927 60.822571,90.466922 C 60.368002,90.466927 60.004204,90.595046 59.731172,90.851278 C 59.458136,91.107518 59.300958,91.468311 59.259636,91.933657 L 62.164128,91.929239 z M 62.770706,102.39077 L 62.770706,105.37726 L 61.95603,105.37726 L 61.95603,102.41728 C 61.956027,101.94899 61.864525,101.5985 61.681521,101.36582 C 61.498511,101.13315 61.224,101.01682 60.857991,101.01681 C 60.418183,101.01682 60.071356,101.15672 59.81751,101.43651 C 59.56366,101.71631 59.436737,102.09772 59.436739,102.58074 L 59.436739,105.37726 L 58.617636,105.37726 L 58.617636,100.42924 L 59.436739,100.42924 L 59.436739,101.19795 C 59.631551,100.90048 59.861047,100.67811 60.125226,100.53085 C 60.389404,100.38359 60.69417,100.30996 61.039522,100.30995 C 61.6092,100.30996 62.04015,100.48594 62.332374,100.83789 C 62.624591,101.18985 62.770701,101.70748 62.770706,102.39077 L 62.770706,102.39077 z M 61.911754,113.37802 C 61.911752,112.78899 61.789993,112.33246 61.54648,112.00848 C 61.302959,111.6845 60.961298,111.52251 60.521496,111.52251 C 60.084638,111.52251 59.744453,111.6845 59.500939,112.00848 C 59.257421,112.33246 59.135662,112.78899 59.135664,113.37802 C 59.135662,113.96413 59.257421,114.41917 59.500939,114.74314 C 59.744453,115.06713 60.084638,115.2291 60.521496,115.2291 C 60.961298,115.2291 61.302959,115.06713 61.54648,114.74314 C 61.789993,114.41917 61.911752,113.96413 61.911754,113.37802 L 61.911754,113.37802 z M 62.72643,115.29537 C 62.726425,116.13773 62.538991,116.76433 62.164128,117.17519 C 61.789255,117.58605 61.215147,117.79146 60.441799,117.79148 C 60.155481,117.79146 59.885398,117.77012 59.631553,117.72742 C 59.377703,117.68471 59.131234,117.61917 58.892147,117.53083 L 58.892147,116.74003 C 59.131234,116.86961 59.367372,116.96534 59.600559,117.0272 C 59.833743,117.08904 60.071356,117.11995 60.313398,117.11997 C 60.847657,117.11995 61.247615,116.98081 61.513274,116.70248 C 61.778924,116.42415 61.911752,116.00372 61.911754,115.44117 L 61.911754,115.03915 C 61.743503,115.33074 61.528028,115.54867 61.26533,115.69298 C 61.002624,115.83731 60.688264,115.90947 60.322256,115.90947 C 59.714199,115.90947 59.224214,115.67827 58.852299,115.21586 C 58.48038,114.75345 58.294422,114.14085 58.294422,113.37802 C 58.294422,112.61225 58.48038,111.99819 58.852299,111.53577 C 59.224214,111.07338 59.714199,110.84217 60.322256,110.84216 C 60.688264,110.84217 61.002624,110.91433 61.26533,111.05865 C 61.528028,111.20296 61.743503,111.42092 61.911754,111.71248 L 61.911754,110.96144 L 62.72643,110.96144 L 62.72643,115.29537 z M 60.552489,120.0888 L 60.552489,121.49367 L 62.23054,121.49367 L 62.23054,122.12542 L 60.552489,122.12542 L 60.552489,124.81149 C 60.552487,125.215 60.607833,125.47418 60.718522,125.58905 C 60.82921,125.70391 61.054279,125.76134 61.393728,125.76134 L 62.23054,125.76134 L 62.23054,126.4417 L 61.393728,126.4417 C 60.765011,126.4417 60.331108,126.32462 60.092021,126.09047 C 59.852929,125.85632 59.733387,125.43 59.733387,124.81149 L 59.733387,122.12542 L 59.135664,122.12542 L 59.135664,121.49367 L 59.733387,121.49367 L 59.733387,120.0888 L 60.552489,120.0888 z M 62.770706,133.98743 L 62.770706,136.97391 L 61.95603,136.97391 L 61.95603,134.01393 C 61.956027,133.54563 61.864525,133.19515 61.681521,132.96247 C 61.498511,132.72981 61.224,132.61347 60.857991,132.61345 C 60.418183,132.61347 60.071356,132.75336 59.81751,133.03315 C 59.56366,133.31296 59.436737,133.69437 59.436739,134.17739 L 59.436739,136.97391 L 58.617636,136.97391 L 58.617636,130.0997 L 59.436739,130.0997 L 59.436739,132.79458 C 59.631551,132.49713 59.861047,132.27475 60.125226,132.12748 C 60.389404,131.98025 60.69417,131.9066 61.039522,131.9066 C 61.6092,131.9066 62.04015,132.0826 62.332374,132.43453 C 62.624591,132.7865 62.770701,133.30412 62.770706,133.98743 L 62.770706,133.98743 z "
       id="text5092" />
    <path
       style="font-size:6.14009714px;font-style:normal;font-weight:normal;fill:#000000;fill-opacity:1;stroke:none;stroke-width:1px;stroke-linecap:butt;stroke-linejoin:miter;stroke-opacity:1;font-family:Bitstream Vera Sans"
       d="M 76.259508,8.934294 L 74.878667,12.670489 L 77.645391,12.670489 L 76.259508,8.934294 z M 75.684997,7.9336186 L 76.839059,7.9336186 L 79.706574,15.441207 L 78.648263,15.441207 L 77.962884,13.515282 L 74.571253,13.515282 L 73.88587,15.441207 L 72.812442,15.441207 L 75.684997,7.9336186 z M 81.656888,14.596416 L 81.656888,17.583361 L 80.724567,17.583361 L 80.724567,9.8092584 L 81.656888,9.8092584 L 81.656888,10.664107 C 81.851748,10.328877 82.097848,10.079965 82.395185,9.9173718 C 82.692516,9.7547884 83.047807,9.6734942 83.461053,9.6734875 C 84.146431,9.6734942 84.703304,9.9450345 85.131672,10.48811 C 85.560028,11.031194 85.774211,11.745243 85.774218,12.630262 C 85.774211,13.515283 85.560028,14.229334 85.131672,14.772414 C 84.703304,15.315495 84.146431,15.587033 83.461053,15.587033 C 83.047807,15.587033 82.692516,15.50574 82.395185,15.343151 C 82.097848,15.180562 81.851748,14.931652 81.656888,14.596416 L 81.656888,14.596416 z M 84.811659,12.630262 C 84.811654,11.949738 84.671386,11.415876 84.390856,11.028677 C 84.110314,10.641483 83.724787,10.447887 83.234273,10.447882 C 82.743754,10.447887 82.358226,10.641483 82.077693,11.028677 C 81.797153,11.415876 81.656886,11.949738 81.656888,12.630262 C 81.656886,13.310789 81.797153,13.844651 82.077693,14.231848 C 82.358226,14.619044 82.743754,14.812643 83.234273,14.812643 C 83.724787,14.812643 84.110314,14.619044 84.390856,14.231848 C 84.671386,13.844651 84.811654,13.310789 84.811659,12.630262 L 84.811659,12.630262 z M 92.139194,12.39392 L 92.139194,12.846488 L 87.875717,12.846488 C 87.916033,13.483439 88.108376,13.968689 88.45275,14.302245 C 88.797115,14.635805 89.276715,14.802586 89.891545,14.802583 C 90.247672,14.802586 90.592881,14.759002 90.927176,14.671842 C 91.261465,14.584683 91.593234,14.453939 91.922492,14.279619 L 91.922492,15.154581 C 91.589876,15.295381 91.248865,15.402654 90.899459,15.476406 C 90.550045,15.550157 90.195596,15.587033 89.83611,15.587033 C 88.935704,15.587033 88.222606,15.325552 87.696811,14.802583 C 87.171015,14.279619 86.908119,13.572274 86.908121,12.680546 C 86.908119,11.758653 87.157577,11.027003 87.656496,10.485594 C 88.155412,9.9441958 88.828192,9.6734942 89.674843,9.6734875 C 90.434135,9.6734942 91.034682,9.9173769 91.47649,10.405138 C 91.918287,10.89291 92.139188,11.555836 92.139194,12.39392 L 92.139194,12.39392 z M 91.211912,12.122382 C 91.20519,11.616178 91.063241,11.212222 90.786067,10.910505 C 90.508888,10.6088 90.141839,10.457943 89.684923,10.457938 C 89.167524,10.457943 88.753438,10.603771 88.442669,10.895419 C 88.131894,11.187078 87.95299,11.597741 87.905952,12.127409 L 91.211912,12.122382 z M 96.93183,10.674165 C 96.82767,10.613828 96.714284,10.569409 96.591654,10.540909 C 96.469023,10.512418 96.333793,10.498172 96.185966,10.498166 C 95.661854,10.498172 95.259529,10.668303 94.978992,11.008561 C 94.698455,11.348829 94.558187,11.837433 94.558187,12.474379 L 94.558187,15.441207 L 93.625867,15.441207 L 93.625867,9.8092584 L 94.558187,9.8092584 L 94.558187,10.684221 C 94.753045,10.342287 95.006708,10.088346 95.319167,9.9224002 C 95.631618,9.7564638 96.011265,9.6734942 96.458101,9.6734875 C 96.521935,9.6734942 96.592487,9.677684 96.669764,9.6860585 C 96.74704,9.6944464 96.832709,9.7070173 96.92679,9.7237729 L 96.93183,10.674165 z M 98.831744,8.2101872 L 98.831744,9.8092584 L 100.74174,9.8092584 L 100.74174,10.528336 L 98.831744,10.528336 L 98.831744,13.585683 C 98.831744,14.044954 98.894735,14.339961 99.020729,14.470701 C 99.146712,14.601443 99.402897,14.666813 99.789259,14.666813 L 100.74174,14.666813 L 100.74174,15.441207 L 99.789259,15.441207 C 99.073642,15.441207 98.579766,15.30795 98.307632,15.041441 C 98.035497,14.774928 97.899424,14.289678 97.899424,13.585683 L 97.899424,10.528336 L 97.219082,10.528336 L 97.219082,9.8092584 L 97.899424,9.8092584 L 97.899424,8.2101872 L 98.831744,8.2101872 z M 101.8706,13.218599 L 101.8706,9.8092584 L 102.79788,9.8092584 L 102.79788,13.183398 C 102.79788,13.716425 102.90203,14.116193 103.11034,14.382703 C 103.31863,14.649214 103.63108,14.78247 104.0477,14.78247 C 104.54829,14.78247 104.9439,14.623236 105.23452,14.304759 C 105.52513,13.986289 105.67044,13.552159 105.67044,13.002373 L 105.67044,9.8092584 L 106.59773,9.8092584 L 106.59773,15.441207 L 105.67044,15.441207 L 105.67044,14.576301 C 105.44533,14.918243 105.18412,15.172182 104.88679,15.338121 C 104.58945,15.504065 104.24425,15.587033 103.85116,15.587033 C 103.20272,15.587033 102.71054,15.385893 102.37456,14.983612 C 102.03859,14.581332 101.8706,13.992994 101.8706,13.218599 L 101.8706,13.218599 z M 111.78847,10.674165 C 111.68432,10.613828 111.57092,10.569409 111.44832,10.540909 C 111.32569,10.512418 111.19045,10.498172 111.04263,10.498166 C 110.5185,10.498172 110.11615,10.668303 109.83565,11.008561 C 109.5551,11.348829 109.41485,11.837433 109.41485,12.474379 L 109.41485,15.441207 L 108.48253,15.441207 L 108.48253,9.8092584 L 109.41485,9.8092584 L 109.41485,10.684221 C 109.60971,10.342287 109.86336,10.088346 110.17582,9.9224002 C 110.48827,9.7564638 110.8679,9.6734942 111.31476,9.6734875 C 111.37859,9.6734942 111.44914,9.677684 111.52641,9.6860585 C 111.60368,9.6944464 111.68936,9.7070173 111.78345,9.7237729 L 111.78847,10.674165 z M 117.59911,12.39392 L 117.59911,12.846488 L 113.33564,12.846488 C 113.37594,13.483439 113.5683,13.968689 113.91264,14.302245 C 114.25702,14.635805 114.73663,14.802586 115.35147,14.802583 C 115.70759,14.802586 116.0528,14.759002 116.38709,14.671842 C 116.72138,14.584683 117.05314,14.453939 117.38241,14.279619 L 117.38241,15.154581 C 117.04978,15.295381 116.70878,15.402654 116.35939,15.476406 C 116.00995,15.550157 115.65551,15.587033 115.29602,15.587033 C 114.39562,15.587033 113.68252,15.325552 113.15673,14.802583 C 112.63092,14.279619 112.36803,13.572274 112.36803,12.680546 C 112.36803,11.758653 112.61748,11.027003 113.11642,10.485594 C 113.61533,9.9441958 114.2881,9.6734942 115.13476,9.6734875 C 115.89405,9.6734942 116.4946,9.9173769 116.9364,10.405138 C 117.37822,10.89291 117.59909,11.555836 117.59911,12.39392 L 117.59911,12.39392 z M 116.67185,12.122382 C 116.66509,11.616178 116.52315,11.212222 116.24599,10.910505 C 115.96881,10.6088 115.60177,10.457943 115.14482,10.457938 C 114.62744,10.457943 114.21335,10.603771 113.90258,10.895419 C 113.59181,11.187078 113.4129,11.597741 113.36587,12.127409 L 116.67185,12.122382 z M 126.28732,9.1706357 L 124.47812,10.146169 L 126.28732,11.126733 L 125.99504,11.619529 L 124.30172,10.598738 L 124.30172,12.494491 L 123.72721,12.494491 L 123.72721,10.598738 L 122.03392,11.619529 L 121.74162,11.126733 L 123.55084,10.146169 L 121.74162,9.1706357 L 122.03392,8.6728107 L 123.72721,9.6936025 L 123.72721,7.7978476 L 124.30172,7.7978476 L 124.30172,9.6936025 L 125.99504,8.6728107 L 126.28732,9.1706357 z M 130.98418,14.163962 L 132.04755,14.163962 L 132.04755,15.441207 L 130.98418,15.441207 L 130.98418,14.163962 z M 134.28008,7.9336186 L 138.27647,7.9336186 L 138.27647,8.788468 L 135.21241,8.788468 L 135.21241,10.628908 C 135.36023,10.578628 135.50806,10.540913 135.65589,10.515766 C 135.8037,10.490629 135.95153,10.478056 136.09936,10.478051 C 136.9393,10.478056 137.60452,10.707693 138.09504,11.166959 C 138.58555,11.626233 138.8308,12.248096 138.83082,13.032542 C 138.8308,13.840461 138.57883,14.468189 138.07488,14.915727 C 137.57091,15.363265 136.86033,15.587033 135.94315,15.587033 C 135.62733,15.587033 135.30563,15.560215 134.97806,15.506578 C 134.65048,15.45294 134.31201,15.372486 133.9626,15.265209 L 133.9626,14.244418 C 134.26496,14.408684 134.57743,14.531045 134.89993,14.611501 C 135.22248,14.691959 135.56347,14.732185 135.92299,14.732184 C 136.50423,14.732185 136.96448,14.579654 137.30383,14.274591 C 137.64313,13.969527 137.81282,13.555512 137.81282,13.032542 C 137.81282,12.509579 137.64313,12.095564 137.30383,11.790498 C 136.96448,11.485438 136.50423,11.332907 135.92299,11.332901 C 135.65084,11.332907 135.37955,11.363077 135.10908,11.423414 C 134.83863,11.483762 134.5623,11.577628 134.28008,11.705011 L 134.28008,7.9336186 z "
       id="text5096" />
    <path
       style="font-size:6.14009714px;font-style:normal;font-weight:normal;line-height:125%;fill:#000000;fill-opacity:1;stroke:none;stroke-width:1px;stroke-linecap:butt;stroke-linejoin:miter;stroke-opacity:1;font-family:Bitstream Vera Sans"
       d="M 241.18387,65.204665 L 244.43981,65.204665 L 244.88689,65.84837 L 242.39748,65.84837 L 243.55459,67.514427 L 245.80113,67.514427 L 246.24819,68.158131 L 244.00166,68.158131 L 245.87668,70.857902 L 245.11014,70.857902 L 241.18387,65.204665 z M 250.25342,76.13249 C 249.879,76.132494 249.68425,76.278272 249.66917,76.569831 C 249.65409,76.861393 249.82274,77.260869 250.17515,77.768255 C 250.52753,78.275648 250.91314,78.675122 251.33193,78.966682 C 251.75072,79.258241 252.1486,79.404021 252.52556,79.404021 C 252.89745,79.404021 253.09049,79.257611 253.10469,78.964788 C 253.11889,78.671967 252.95066,78.273124 252.60003,77.768255 C 252.25114,77.265916 251.8658,76.867703 251.44398,76.573617 C 251.02217,76.279535 250.62532,76.132494 250.25342,76.13249 L 250.25342,76.13249 z M 249.84317,75.541796 C 250.45034,75.541801 251.06398,75.738698 251.68407,76.13249 C 252.30416,76.526288 252.85613,77.071543 253.34002,77.768255 C 253.82214,78.462448 254.0271,79.007072 253.95489,79.402128 C 253.88267,79.797185 253.54298,79.994715 252.9358,79.994715 C 252.32609,79.994715 251.7114,79.797185 251.09169,79.402128 C 250.472,79.007072 249.92108,78.462448 249.43896,77.768255 C 248.95507,77.071543 248.74905,76.526288 248.82087,76.13249 C 248.89272,75.738698 249.23347,75.541801 249.84317,75.541796 L 249.84317,75.541796 z M 257.94363,84.833855 L 258.39594,85.485132 C 258.12322,85.37659 257.86871,85.295179 257.63243,85.240902 C 257.39614,85.186633 257.1768,85.159496 256.97441,85.159493 C 256.52156,85.159496 256.26941,85.302753 256.21795,85.58926 C 256.16647,85.875775 256.32044,86.277774 256.67985,86.79526 C 257.03925,87.312748 257.44367,87.714748 257.89311,88.001258 C 258.34256,88.287771 258.79371,88.431026 259.24657,88.431025 C 259.44894,88.431026 259.63058,88.403888 259.7915,88.349614 C 259.95238,88.295343 260.0938,88.213933 260.21576,88.105386 L 260.66282,88.74909 C 260.53113,88.839966 260.37671,88.908123 260.19955,88.953561 C 260.0224,88.998999 259.81618,89.021719 259.58091,89.021719 C 258.94086,89.021719 258.29296,88.821034 257.63726,88.419666 C 256.98154,88.018299 256.41702,87.47683 255.94365,86.79526 C 255.46328,86.103596 255.27583,85.559603 255.38132,85.163279 C 255.48683,84.766965 255.87099,84.568805 256.53381,84.5688 C 256.74885,84.568805 256.97417,84.590892 257.20978,84.635063 C 257.44537,84.679243 257.69,84.745507 257.94363,84.833855 L 257.94363,84.833855 z M 264.19483,95.80712 C 263.63067,95.80712 263.28451,95.87149 263.15635,96.00023 C 263.02818,96.12897 263.07193,96.34859 263.28759,96.65908 C 263.45939,96.90646 263.6773,97.10273 263.94127,97.24788 C 264.20526,97.39303 264.47766,97.4656 264.75847,97.4656 C 265.14555,97.4656 265.36098,97.32866 265.40477,97.05477 C 265.44856,96.78088 265.31267,96.41675 264.9971,95.96236 L 264.88927,95.80712 L 264.19483,95.80712 z M 265.38766,95.51934 L 267.06809,97.93891 L 266.36984,97.93891 L 265.92277,97.29521 C 265.94222,97.55269 265.87555,97.74264 265.72277,97.86508 C 265.56999,97.98751 265.32158,98.04872 264.97752,98.04872 C 264.54237,98.04872 264.11184,97.92692 263.68586,97.68332 C 263.2599,97.43973 262.9049,97.11346 262.6209,96.70452 C 262.28954,96.22742 262.19972,95.8677 262.35145,95.62537 C 262.50316,95.38303 262.89654,95.26187 263.53154,95.26186 L 264.51059,95.26186 L 264.46325,95.19371 C 264.24061,94.87312 263.96272,94.6251 263.62963,94.44966 C 263.29654,94.27422 262.93898,94.1865 262.55698,94.1865 C 262.31411,94.1865 262.09772,94.21553 261.90783,94.27359 C 261.71794,94.33165 261.55706,94.41874 261.42519,94.53486 L 260.97814,93.891152 C 261.16527,93.792706 261.36191,93.71887 261.56807,93.669642 C 261.77423,93.620421 261.99115,93.595809 262.21883,93.595804 C 262.83359,93.595809 263.40321,93.754842 263.92771,94.0729 C 264.45218,94.39097 264.93883,94.87312 265.38766,95.51934 L 265.38766,95.51934 z M 267.22671,101.07412 L 267.92495,101.07412 L 272.01691,106.96592 L 271.31868,106.96592 L 267.22671,101.07412 z M 278.87627,119.36668 L 279.64282,119.36668 L 283.12204,124.37623 L 285.88086,124.37623 L 286.32792,125.01992 L 282.80253,125.01992 L 278.87627,119.36668 z M 290.8557,131.75231 L 291.09237,132.09309 L 287.88196,132.09309 C 288.24544,132.57272 288.64405,132.93813 289.07779,133.1893 C 289.51155,133.44046 289.9599,133.56604 290.42287,133.56604 C 290.69103,133.56604 290.9282,133.53322 291.13434,133.46759 C 291.34047,133.40197 291.52194,133.30352 291.6787,133.17224 L 292.13628,133.8311 C 291.95945,133.93713 291.75877,134.01791 291.53423,134.07345 C 291.30969,134.12898 291.06209,134.15675 290.7914,134.15675 C 290.11337,134.15675 289.43966,133.95984 288.77023,133.56604 C 288.10081,133.17224 287.53292,132.63962 287.06659,131.96814 C 286.58444,131.27396 286.38967,130.72302 286.4822,130.31533 C 286.57475,129.90766 286.9398,129.70382 287.57732,129.70382 C 288.14908,129.70382 288.72883,129.88747 289.3166,130.25476 C 289.90436,130.62205 290.41739,131.12124 290.8557,131.75231 L 290.8557,131.75231 z M 290.01546,131.54785 C 289.74565,131.16667 289.4275,130.8625 289.06101,130.63531 C 288.6945,130.40812 288.33921,130.29452 287.99516,130.29452 C 287.60556,130.29452 287.37002,130.40434 287.28852,130.62393 C 287.20704,130.84357 287.28709,131.15278 287.52868,131.55163 L 290.01546,131.54785 z M 296.76267,140.51428 L 298.54041,143.07394 L 297.84216,143.07394 L 296.08021,140.53698 C 295.80144,140.13562 295.5144,139.83522 295.21904,139.6358 C 294.92369,139.43637 294.61915,139.33667 294.30545,139.33667 C 293.92848,139.33667 293.7145,139.45658 293.66351,139.69638 C 293.61248,139.93619 293.73074,140.2631 294.01825,140.67707 L 295.68292,143.07394 L 294.98088,143.07394 L 292.03552,138.83305 L 292.73756,138.83305 L 293.19513,139.4919 C 293.18503,139.23696 293.24937,139.04636 293.38814,138.92016 C 293.5269,138.79395 293.74428,138.73083 294.04028,138.73081 C 294.52853,138.73083 295.00265,138.88166 295.46262,139.18332 C 295.92258,139.48498 296.35593,139.92862 296.76267,140.51428 L 296.76267,140.51428 z M 302.56674,149.93127 C 302.21611,149.42642 301.84001,149.03513 301.43845,148.75745 C 301.03689,148.47978 300.64763,148.34095 300.27067,148.34094 C 299.89627,148.34095 299.70112,148.47978 299.68525,148.75745 C 299.6694,149.03513 299.83677,149.42642 300.18741,149.93127 C 300.5363,150.43361 300.91153,150.82362 301.31309,151.10129 C 301.71466,151.37897 302.10265,151.51782 302.47707,151.5178 C 302.85403,151.51782 303.05043,151.37897 303.0663,151.10129 C 303.08217,150.82362 302.91564,150.43361 302.56674,149.93127 L 302.56674,149.93127 z M 304.40633,151.57461 C 304.90774,152.29656 305.12009,152.83362 305.04338,153.18578 C 304.96663,153.53792 304.59686,153.71398 303.93403,153.71398 C 303.68864,153.71398 303.44446,153.69569 303.20147,153.65908 C 302.95846,153.62247 302.70822,153.5663 302.4507,153.49057 L 301.97997,152.81279 C 302.26204,152.92387 302.52141,153.00592 302.75807,153.05892 C 302.99474,153.11192 303.21681,153.13843 303.42427,153.13843 C 303.88217,153.13843 304.14214,153.01917 304.20416,152.78062 C 304.26615,152.54206 304.12973,152.18172 303.79488,151.69956 L 303.55556,151.35501 C 303.58491,151.6049 303.52998,151.79171 303.39073,151.91539 C 303.25147,152.03908 303.02499,152.10093 302.71129,152.10093 C 302.19013,152.10093 301.63256,151.90277 301.03854,151.50645 C 300.44453,151.11013 299.92048,150.58509 299.4664,149.93127 C 299.01058,149.27495 298.80441,148.74863 298.84792,148.35232 C 298.89144,147.95599 299.17377,147.75782 299.69492,147.75782 C 300.00863,147.75782 300.321,147.81968 300.63208,147.94336 C 300.94314,148.06706 301.25755,148.25385 301.57533,148.50376 L 301.12827,147.86006 L 301.82651,147.86006 L 304.40633,151.57461 z M 305.39641,155.68296 L 306.23268,156.88708 L 307.67093,156.88708 L 308.04698,157.42853 L 306.60873,157.42853 L 308.20766,159.73074 C 308.44783,160.07655 308.64955,160.29871 308.8128,160.39715 C 308.97604,160.49559 309.20314,160.54482 309.49408,160.54482 L 310.21131,160.54482 L 310.61628,161.12794 L 309.89906,161.12794 C 309.36021,161.12794 308.91861,161.02759 308.57431,160.82691 C 308.23002,160.62624 307.87378,160.26084 307.50562,159.73074 L 305.90669,157.42853 L 305.3944,157.42853 L 305.01835,156.88708 L 305.53063,156.88708 L 304.69436,155.68296 L 305.39641,155.68296 z M 315.57091,167.59527 L 317.34866,170.15496 L 316.65041,170.15496 L 314.88845,167.618 C 314.6097,167.21664 314.32264,166.91624 314.02729,166.71682 C 313.73195,166.51739 313.42741,166.41768 313.1137,166.41768 C 312.73674,166.41768 312.52276,166.53758 312.47177,166.7774 C 312.42073,167.01721 312.53899,167.3441 312.82651,167.75809 L 314.49117,170.15496 L 313.78912,170.15496 L 309.69718,164.26316 L 310.39922,164.26316 L 312.00339,166.57292 C 311.99329,166.31797 312.05762,166.12738 312.19638,166.00116 C 312.33515,165.87494 312.55252,165.81183 312.84852,165.81183 C 313.33678,165.81183 313.81091,165.96268 314.27086,166.26431 C 314.73081,166.56597 315.16417,167.00963 315.57091,167.59527 L 315.57091,167.59527 z "
       id="text5100" />
    <path
       sodipodi:type="arc"
       style="opacity:1;fill:#999999;fill-opacity:0.67058824;stroke:#000000;stroke-width:2.39614725;stroke-miterlimit:4;stroke-dasharray:none;stroke-dashoffset:0;stroke-opacity:1"
       id="path5108"
       sodipodi:cx="210.61681"
       sodipodi:cy="367.98383"
       sodipodi:rx="28.789347"
       sodipodi:ry="28.789347"
       d="M 210.96853,339.19663 A 28.789347,28.789347 0 0 1 220.51055,340.94792 L 210.61681,367.98383 z"
       transform="matrix(0.8355893,0,0,0.8337581,-106.66828,-132.01306)"
       sodipodi:start="4.7246063"
       sodipodi:end="5.0632002" />
    <path
       style="font-size:6.14009714px;font-style:normal;font-weight:normal;fill:#000000;fill-opacity:1;stroke:none;stroke-width:1px;stroke-linecap:butt;stroke-linejoin:miter;stroke-opacity:1;font-family:Bitstream Vera Sans"
       d="M 75.687484,160.82793 L 80.948756,160.82793 L 80.948756,161.86808 L 76.926149,161.86808 L 76.926149,164.56027 L 80.556305,164.56027 L 80.556305,165.60044 L 76.926149,165.60044 L 76.926149,169.96296 L 75.687484,169.96296 L 75.687484,160.82793 z M 82.874208,163.11015 L 84.002502,163.11015 L 84.002502,169.96296 L 82.874208,169.96296 L 82.874208,163.11015 z M 82.874208,160.44246 L 84.002502,160.44246 L 84.002502,161.86808 L 82.874208,161.86808 L 82.874208,160.44246 z M 92.231669,166.2551 L 92.231669,166.80578 L 87.043983,166.80578 C 87.093033,167.58081 87.327073,168.17125 87.746098,168.57711 C 88.165117,168.98297 88.748677,169.18591 89.496789,169.18591 C 89.930113,169.18591 90.350155,169.1329 90.756918,169.02685 C 91.163669,168.92074 91.567362,168.76168 91.967992,168.54959 L 91.967992,169.61421 C 91.563273,169.78552 91.148341,169.91606 90.723193,170.00579 C 90.298035,170.09554 89.866749,170.14041 89.429337,170.14041 C 88.333746,170.14041 87.466067,169.82224 86.826294,169.18591 C 86.186522,168.54959 85.866634,167.6889 85.866634,166.60387 C 85.866634,165.48212 86.170169,164.59188 86.777237,163.93311 C 87.384307,163.27435 88.20293,162.94496 89.233112,162.94494 C 90.156999,162.94496 90.88773,163.24171 91.425309,163.83521 C 91.962876,164.42871 92.231662,165.23535 92.231669,166.2551 L 92.231669,166.2551 z M 91.103377,165.92469 C 91.095198,165.30878 90.922478,164.81724 90.585223,164.45013 C 90.247956,164.08301 89.80134,163.89947 89.245374,163.89947 C 88.61582,163.89947 88.111972,164.07689 87.733832,164.43179 C 87.355691,164.78664 87.138002,165.28636 87.080773,165.93083 L 91.103377,165.92469 z M 94.083538,160.44246 L 95.21183,160.44246 L 95.21183,169.96296 L 94.083538,169.96296 L 94.083538,160.44246 z M 102.08582,164.15032 L 102.08582,160.44246 L 103.21412,160.44246 L 103.21412,169.96296 L 102.08582,169.96296 L 102.08582,168.93505 C 101.84871,169.34295 101.54927,169.64583 101.18748,169.84366 C 100.82569,170.04149 100.39134,170.14041 99.88443,170.14041 C 99.054559,170.14041 98.379017,169.81 97.857796,169.1492 C 97.336576,168.4884 97.075965,167.61955 97.075965,166.54268 C 97.075965,165.46582 97.336576,164.59699 97.857796,163.93617 C 98.379017,163.27535 99.054559,162.94496 99.88443,162.94494 C 100.39134,162.94496 100.82569,163.04387 101.18748,163.24171 C 101.54927,163.43954 101.84871,163.74242 102.08582,164.15032 L 102.08582,164.15032 z M 98.241047,166.54268 C 98.241045,167.37074 98.411722,168.02033 98.753071,168.49146 C 99.094419,168.96259 99.563517,169.19815 100.16037,169.19815 C 100.75722,169.19815 101.22734,168.96259 101.57073,168.49146 C 101.91412,168.02033 102.08582,167.37074 102.08582,166.54268 C 102.08582,165.71464 101.91412,165.06502 101.57073,164.59392 C 101.22734,164.12281 100.75722,163.8872 100.16037,163.8872 C 99.563517,163.8872 99.094419,164.12281 98.753071,164.59392 C 98.411722,165.06502 98.241045,165.71464 98.241047,166.54268 L 98.241047,166.54268 z M 112.19752,163.89947 C 111.59249,163.89947 111.1142,164.13502 110.76263,164.60616 C 110.41106,165.07727 110.23527,165.7228 110.23528,166.54268 C 110.23527,167.36256 110.41004,168.00809 110.75956,168.47919 C 111.10908,168.95035 111.58841,169.18591 112.19752,169.18591 C 112.79845,169.18591 113.27471,168.94931 113.62628,168.47616 C 113.97784,168.00297 114.15363,167.35849 114.15364,166.54268 C 114.15363,165.73096 113.97784,165.08749 113.62628,164.61226 C 113.27471,164.13706 112.79845,163.89947 112.19752,163.89947 L 112.19752,163.89947 z M 112.19752,162.94494 C 113.17865,162.94496 113.94923,163.26315 114.50929,163.89947 C 115.06934,164.5358 115.34938,165.41687 115.34938,166.54268 C 115.34938,167.66442 115.06934,168.54449 114.50929,169.18284 C 113.94923,169.82122 113.17865,170.14041 112.19752,170.14041 C 111.21231,170.14041 110.44069,169.82122 109.88268,169.18284 C 109.32467,168.54449 109.04566,167.66442 109.04566,166.54268 C 109.04566,165.41687 109.32467,164.5358 109.88268,163.89947 C 110.44069,163.26315 111.21231,162.94496 112.19752,162.94494 L 112.19752,162.94494 z M 120.69036,160.44246 L 120.69036,161.37859 L 119.61114,161.37859 C 119.20642,161.37859 118.92537,161.46018 118.76798,161.62332 C 118.61059,161.78651 118.53189,162.08022 118.53189,162.50442 L 118.53189,163.11015 L 120.3899,163.11015 L 120.3899,163.98512 L 118.53189,163.98512 L 118.53189,169.96296 L 117.39748,169.96296 L 117.39748,163.98512 L 116.31824,163.98512 L 116.31824,163.11015 L 117.39748,163.11015 L 117.39748,162.6329 C 117.39748,161.87015 117.5753,161.31436 117.93096,160.9656 C 118.28661,160.61683 118.85076,160.44247 119.6234,160.44246 L 120.69036,160.44246 z M 124.81722,163.11015 L 126.01297,163.11015 L 128.15915,168.86164 L 130.30537,163.11015 L 131.5011,163.11015 L 128.92566,169.96296 L 127.39266,169.96296 L 124.81722,163.11015 z M 133.05866,163.11015 L 134.18694,163.11015 L 134.18694,169.96296 L 133.05866,169.96296 L 133.05866,163.11015 z M 133.05866,160.44246 L 134.18694,160.44246 L 134.18694,161.86808 L 133.05866,161.86808 L 133.05866,160.44246 z M 142.4161,166.2551 L 142.4161,166.80578 L 137.22841,166.80578 C 137.27748,167.58081 137.51153,168.17125 137.93054,168.57711 C 138.34955,168.98297 138.93312,169.18591 139.68123,169.18591 C 140.11457,169.18591 140.5346,169.1329 140.94137,169.02685 C 141.34812,168.92074 141.75182,168.76168 142.15242,168.54959 L 142.15242,169.61421 C 141.74773,169.78552 141.33279,169.91606 140.90763,170.00579 C 140.48248,170.09554 140.05121,170.14041 139.61377,170.14041 C 138.51818,170.14041 137.65051,169.82224 137.01072,169.18591 C 136.37095,168.54959 136.05109,167.6889 136.05109,166.60387 C 136.05109,165.48212 136.3546,164.59188 136.96169,163.93311 C 137.56875,163.27435 138.38736,162.94496 139.41756,162.94494 C 140.34143,162.94496 141.07216,163.24171 141.60973,163.83521 C 142.14731,164.42871 142.4161,165.23535 142.4161,166.2551 L 142.4161,166.2551 z M 141.28782,165.92469 C 141.27964,165.30878 141.10694,164.81724 140.76966,164.45013 C 140.43241,164.08301 139.98579,163.89947 139.42982,163.89947 C 138.80026,163.89947 138.2964,164.07689 137.91827,164.43179 C 137.54013,164.78664 137.32242,165.28636 137.26521,165.93083 L 141.28782,165.92469 z M 143.61187,163.11015 L 144.74015,163.11015 L 146.1505,168.45782 L 147.55475,163.11015 L 148.88538,163.11015 L 150.29574,168.45782 L 151.7,163.11015 L 152.82829,163.11015 L 151.03163,169.96296 L 149.70096,169.96296 L 148.22313,164.34611 L 146.73917,169.96296 L 145.40854,169.96296 L 143.61187,163.11015 z "
       id="text5110" />
    <path
       style="font-size:6.14009714px;font-style:normal;font-weight:normal;fill:#000000;fill-opacity:1;stroke:none;stroke-width:1px;stroke-linecap:butt;stroke-linejoin:miter;stroke-opacity:1;font-family:Bitstream Vera Sans"
       d="M 233.5423,42.462883 L 232.11963,46.312264 L 234.97018,46.312264 L 233.5423,42.462883 z M 232.95039,41.431892 L 234.13941,41.431892 L 237.0938,49.16692 L 236.00342,49.16692 L 235.29729,47.18265 L 231.8029,47.18265 L 231.09676,49.16692 L 229.99081,49.16692 L 232.95039,41.431892 z M 239.1032,48.296537 L 239.1032,51.37397 L 238.14264,51.37397 L 238.14264,43.364354 L 239.1032,43.364354 L 239.1032,44.2451 C 239.30396,43.899715 239.55752,43.643261 239.86386,43.475743 C 240.1702,43.308235 240.53625,43.224477 240.96202,43.22447 C 241.66816,43.224477 242.2419,43.504244 242.68325,44.063771 C 243.12458,44.623307 243.34525,45.358989 243.34526,46.270818 C 243.34525,47.182652 243.12458,47.918334 242.68325,48.477867 C 242.2419,49.0374 241.66816,49.317164 240.96202,49.317164 C 240.53625,49.317164 240.1702,49.233408 239.86386,49.065894 C 239.55752,48.898379 239.30396,48.641928 239.1032,48.296537 L 239.1032,48.296537 z M 242.35354,46.270818 C 242.35353,45.569679 242.20902,45.019643 241.91998,44.620714 C 241.63095,44.221791 241.23374,44.02233 240.72836,44.022324 C 240.22299,44.02233 239.82579,44.221791 239.53675,44.620714 C 239.24771,45.019643 239.1032,45.569679 239.1032,46.270818 C 239.1032,46.971962 239.24771,47.521997 239.53675,47.920924 C 239.82579,48.319851 240.22299,48.519314 240.72836,48.519314 C 241.23374,48.519314 241.63095,48.319851 241.91998,47.920924 C 242.20902,47.521997 242.35353,46.971962 242.35354,46.270818 L 242.35354,46.270818 z M 249.90306,46.027317 L 249.90306,46.493596 L 245.51042,46.493596 C 245.55196,47.149842 245.75013,47.649792 246.10494,47.993454 C 246.45973,48.337118 246.95386,48.508952 247.58732,48.50895 C 247.95424,48.508952 248.3099,48.464048 248.65432,48.374247 C 248.99873,48.284448 249.34056,48.149743 249.67979,47.970142 L 249.67979,48.871611 C 249.3371,49.016677 248.98576,49.1272 248.62576,49.203186 C 248.26577,49.279171 247.90058,49.317164 247.5302,49.317164 C 246.60253,49.317164 245.86782,49.047762 245.32609,48.50895 C 244.78437,47.970142 244.51351,47.241369 244.51351,46.322626 C 244.51351,45.372805 244.77053,44.61899 245.28456,44.061179 C 245.79859,43.50338 246.49175,43.224477 247.36405,43.22447 C 248.14635,43.224477 248.76509,43.475749 249.22028,43.978286 C 249.67546,44.480835 249.90305,45.163844 249.90306,46.027317 L 249.90306,46.027317 z M 248.94769,45.747552 C 248.94076,45.226014 248.79451,44.80982 248.50894,44.498962 C 248.22336,44.188117 247.84519,44.032691 247.37444,44.032685 C 246.84137,44.032691 246.41474,44.182936 246.09455,44.48342 C 245.77437,44.783914 245.59004,45.207018 245.54157,45.752732 L 248.94769,45.747552 z M 254.84088,44.255462 C 254.73357,44.193298 254.61676,44.147533 254.49041,44.11817 C 254.36406,44.088816 254.22473,44.074138 254.07243,44.074132 C 253.53244,44.074138 253.11792,44.249423 252.82889,44.599989 C 252.53986,44.950565 252.39533,45.453971 252.39533,46.110214 L 252.39533,49.16692 L 251.43477,49.16692 L 251.43477,43.364354 L 252.39533,43.364354 L 252.39533,44.265823 C 252.5961,43.913531 252.85745,43.651897 253.17936,43.480923 C 253.50129,43.30996 253.89244,43.224477 254.35281,43.22447 C 254.41857,43.224477 254.49126,43.228794 254.57089,43.237422 C 254.6505,43.246064 254.73876,43.259016 254.8357,43.276279 L 254.84088,44.255462 z M 256.79836,41.71684 L 256.79836,43.364354 L 258.76621,43.364354 L 258.76621,44.105216 L 256.79836,44.105216 L 256.79836,47.255184 C 256.79836,47.728368 256.86326,48.032312 256.99307,48.167014 C 257.12287,48.301716 257.38681,48.369067 257.78488,48.369067 L 258.76621,48.369067 L 258.76621,49.16692 L 257.78488,49.16692 C 257.04759,49.16692 256.53875,49.029626 256.25837,48.755043 C 255.97799,48.480456 255.83779,47.980506 255.83779,47.255184 L 255.83779,44.105216 L 255.13684,44.105216 L 255.13684,43.364354 L 255.83779,43.364354 L 255.83779,41.71684 L 256.79836,41.71684 z M 259.92927,46.876979 L 259.92927,43.364354 L 260.88465,43.364354 L 260.88465,46.840712 C 260.88465,47.389886 260.99195,47.801765 261.20657,48.076349 C 261.42118,48.350934 261.74309,48.488227 262.17233,48.488227 C 262.68808,48.488227 263.09568,48.324169 263.3951,47.996044 C 263.69452,47.667926 263.84423,47.220645 263.84423,46.654203 L 263.84423,43.364354 L 264.79961,43.364354 L 264.79961,49.16692 L 263.84423,49.16692 L 263.84423,48.275813 C 263.6123,48.628113 263.34318,48.889745 263.03684,49.060711 C 262.73049,49.231683 262.37483,49.317164 261.96983,49.317164 C 261.30176,49.317164 260.79466,49.109931 260.44851,48.695462 C 260.10235,48.280995 259.92927,47.674834 259.92927,46.876979 L 259.92927,46.876979 z M 270.1476,44.255462 C 270.04029,44.193298 269.92347,44.147533 269.79715,44.11817 C 269.6708,44.088816 269.53147,44.074138 269.37917,44.074132 C 268.83916,44.074138 268.42462,44.249423 268.13562,44.599989 C 267.84658,44.950565 267.70208,45.453971 267.70208,46.110214 L 267.70208,49.16692 L 266.74151,49.16692 L 266.74151,43.364354 L 267.70208,43.364354 L 267.70208,44.265823 C 267.90284,43.913531 268.16417,43.651897 268.4861,43.480923 C 268.80801,43.30996 269.19915,43.224477 269.65955,43.22447 C 269.72531,43.224477 269.79799,43.228794 269.87761,43.237422 C 269.95721,43.246064 270.04549,43.259016 270.14243,43.276279 L 270.1476,44.255462 z M 276.13427,46.027317 L 276.13427,46.493596 L 271.74164,46.493596 C 271.78317,47.149842 271.98135,47.649792 272.33612,47.993454 C 272.69094,48.337118 273.18507,48.508952 273.81854,48.50895 C 274.18545,48.508952 274.54112,48.464048 274.88553,48.374247 C 275.22996,48.284448 275.57176,48.149743 275.91101,47.970142 L 275.91101,48.871611 C 275.56831,49.016677 275.21697,49.1272 274.857,49.203186 C 274.49697,49.279171 274.13179,49.317164 273.76141,49.317164 C 272.83373,49.317164 272.09903,49.047762 271.55731,48.50895 C 271.01557,47.970142 270.74472,47.241369 270.74472,46.322626 C 270.74472,45.372805 271.00173,44.61899 271.51579,44.061179 C 272.02981,43.50338 272.72296,43.224477 273.59527,43.22447 C 274.37756,43.224477 274.9963,43.475749 275.45149,43.978286 C 275.90669,44.480835 276.13425,45.163844 276.13427,46.027317 L 276.13427,46.027317 z M 275.17892,45.747552 C 275.17196,45.226014 275.02572,44.80982 274.74016,44.498962 C 274.45458,44.188117 274.07642,44.032691 273.60563,44.032685 C 273.07258,44.032691 272.64595,44.182936 272.32576,44.48342 C 272.00558,44.783914 271.82125,45.207018 271.77279,45.752732 L 275.17892,45.747552 z M 285.08569,42.706385 L 283.22168,43.711472 L 285.08569,44.721741 L 284.78455,45.229465 L 283.03994,44.177751 L 283.03994,46.130934 L 282.44802,46.130934 L 282.44802,44.177751 L 280.70343,45.229465 L 280.40228,44.721741 L 282.26631,43.711472 L 280.40228,42.706385 L 280.70343,42.193478 L 282.44802,43.245194 L 282.44802,41.292008 L 283.03994,41.292008 L 283.03994,43.245194 L 284.78455,42.193478 L 285.08569,42.706385 z M 289.92484,47.850981 L 291.02043,47.850981 L 291.02043,49.16692 L 289.92484,49.16692 L 289.92484,47.850981 z M 293.32059,41.431892 L 297.43805,41.431892 L 297.43805,42.312639 L 294.28116,42.312639 L 294.28116,44.208834 C 294.43346,44.157031 294.58577,44.118173 294.73808,44.092265 C 294.89037,44.066367 295.04267,44.053412 295.19498,44.053408 C 296.06037,44.053412 296.74574,44.290006 297.25112,44.763186 C 297.75649,45.236374 298.00917,45.877075 298.00919,46.685285 C 298.00917,47.517681 297.74957,48.164425 297.23035,48.625521 C 296.71111,49.086617 295.979,49.317164 295.03404,49.317164 C 294.70865,49.317164 294.37721,49.289533 294.03971,49.234271 C 293.70221,49.179009 293.35348,49.096117 292.99349,48.98559 L 292.99349,47.933875 C 293.30501,48.103117 293.62694,48.229185 293.95922,48.312078 C 294.29154,48.394974 294.64286,48.436418 295.01327,48.436417 C 295.61212,48.436418 296.08631,48.279267 296.43594,47.964962 C 296.78552,47.650657 296.96035,47.224099 296.96035,46.685285 C 296.96035,46.146479 296.78552,45.719922 296.43594,45.405614 C 296.08631,45.091312 295.61212,44.934161 295.01327,44.934155 C 294.73288,44.934161 294.45336,44.965245 294.1747,45.02741 C 293.89606,45.089586 293.61136,45.186295 293.32059,45.317538 L 293.32059,41.431892 z "
       id="path3228" />
  </g>
</svg>
