<?xml version="1.0" encoding="UTF-8" standalone="no"?>
<!-- Created with Inkscape (http://www.inkscape.org/) -->

<svg
   xmlns:dc="http://purl.org/dc/elements/1.1/"
   xmlns:cc="http://creativecommons.org/ns#"
   xmlns:rdf="http://www.w3.org/1999/02/22-rdf-syntax-ns#"
   xmlns:svg="http://www.w3.org/2000/svg"
   xmlns="http://www.w3.org/2000/svg"
   xmlns:xlink="http://www.w3.org/1999/xlink"
   xmlns:sodipodi="http://sodipodi.sourceforge.net/DTD/sodipodi-0.dtd"
   xmlns:inkscape="http://www.inkscape.org/namespaces/inkscape"
   width="457.55197"
   height="137.7701"
   id="svg2"
   version="1.1"
   inkscape:version="0.48.1 "
   sodipodi:docname="hair_model.svg"
   inkscape:export-filename="E:\dev\src\houdini\help\documents\nodes\images\hair_model.png"
   inkscape:export-xdpi="90"
   inkscape:export-ydpi="90">
  <defs
     id="defs4">
    <linearGradient
       id="linearGradient4925">
      <stop
         style="stop-color:#ad700f;stop-opacity:1;"
         offset="0"
         id="stop4927" />
      <stop
         id="stop4933"
         offset="0.24995382"
         style="stop-color:#eda839;stop-opacity:1;" />
      <stop
         style="stop-color:#eda839;stop-opacity:1;"
         offset="0.40531096"
         id="stop4935" />
      <stop
         style="stop-color:#905d0c;stop-opacity:1;"
         offset="1"
         id="stop4929" />
    </linearGradient>
    <linearGradient
       id="linearGradient4889">
      <stop
         style="stop-color:#fffcdf;stop-opacity:1;"
         offset="0"
         id="stop4891" />
      <stop
         style="stop-color:#ead200;stop-opacity:1;"
         offset="1"
         id="stop4893" />
    </linearGradient>
    <radialGradient
       inkscape:collect="always"
       xlink:href="#linearGradient4889"
       id="radialGradient4901"
       gradientUnits="userSpaceOnUse"
       cx="47.350899"
       cy="44.861286"
       fx="47.350899"
       fy="44.861286"
       r="10.65411" />
    <radialGradient
       inkscape:collect="always"
       xlink:href="#linearGradient4889"
       id="radialGradient4909"
       gradientUnits="userSpaceOnUse"
       cx="47.350899"
       cy="44.861286"
       fx="47.350899"
       fy="44.861286"
       r="10.65411" />
    <linearGradient
       inkscape:collect="always"
       xlink:href="#linearGradient4925"
       id="linearGradient4931"
       x1="131.18788"
       y1="85.481606"
       x2="130.99416"
       y2="138.33875"
       gradientUnits="userSpaceOnUse" />
    <linearGradient
       inkscape:collect="always"
       xlink:href="#linearGradient4925-4"
       id="linearGradient4931-8"
       x1="262.9736"
       y1="104.76732"
       x2="261.17273"
       y2="112.80303"
       gradientUnits="userSpaceOnUse"
       gradientTransform="translate(9.5964492,0)" />
    <linearGradient
       id="linearGradient4925-4">
      <stop
         style="stop-color:#ad700f;stop-opacity:1;"
         offset="0"
         id="stop4927-0" />
      <stop
         id="stop4933-4"
         offset="0.24995382"
         style="stop-color:#eda839;stop-opacity:1;" />
      <stop
         style="stop-color:#eda839;stop-opacity:1;"
         offset="0.40531096"
         id="stop4935-8" />
      <stop
         style="stop-color:#905d0c;stop-opacity:1;"
         offset="1"
         id="stop4929-7" />
    </linearGradient>
    <linearGradient
       gradientTransform="translate(-40.652161,-84.388581)"
       y2="138.33875"
       x2="130.99416"
       y1="85.481606"
       x1="131.18788"
       gradientUnits="userSpaceOnUse"
       id="linearGradient5021"
       xlink:href="#linearGradient4925-4"
       inkscape:collect="always" />
    <radialGradient
       inkscape:collect="always"
       xlink:href="#linearGradient4889"
       id="radialGradient5075"
       gradientUnits="userSpaceOnUse"
       cx="47.350899"
       cy="44.861286"
       fx="47.350899"
       fy="44.861286"
       r="10.65411" />
  </defs>
  <sodipodi:namedview
     id="base"
     pagecolor="#ffffff"
     bordercolor="#666666"
     borderopacity="1.0"
     inkscape:pageopacity="0.0"
     inkscape:pageshadow="2"
     inkscape:zoom="1.979899"
     inkscape:cx="261.21874"
     inkscape:cy="80.114879"
     inkscape:document-units="px"
     inkscape:current-layer="layer1"
     showgrid="false"
     inkscape:snap-global="false"
     fit-margin-top="0"
     fit-margin-left="0"
     fit-margin-right="0"
     fit-margin-bottom="0"
     inkscape:window-width="2560"
     inkscape:window-height="1538"
     inkscape:window-x="-8"
     inkscape:window-y="-8"
     inkscape:window-maximized="1" />
  <metadata
     id="metadata7">
    <rdf:RDF>
      <cc:Work
         rdf:about="">
        <dc:format>image/svg+xml</dc:format>
        <dc:type
           rdf:resource="http://purl.org/dc/dcmitype/StillImage" />
        <dc:title></dc:title>
      </cc:Work>
    </rdf:RDF>
  </metadata>
  <g
     inkscape:label="Layer 1"
     inkscape:groupmode="layer"
     id="layer1"
     transform="translate(-32.608092,-31.167545)">
    <path
       sodipodi:type="arc"
       style="color:#000000;fill:none;stroke:#888a85;stroke-width:1.98315704;stroke-linecap:butt;stroke-linejoin:miter;stroke-miterlimit:4;stroke-opacity:1;stroke-dasharray:1.98315701, 3.96631402;stroke-dashoffset:0;marker:none;visibility:visible;display:inline;overflow:visible;enable-background:accumulate"
       id="path5077"
       sodipodi:cx="411.88971"
       sodipodi:cy="103.95521"
       sodipodi:rx="59.093925"
       sodipodi:ry="59.472733"
       d="m 470.98363,103.95521 c 0,32.84588 -26.45725,59.47273 -59.09392,59.47273 -32.63667,0 -59.09393,-26.62685 -59.09393,-59.47273 0,-32.845885 26.45726,-59.472735 59.09393,-59.472735 32.63667,0 59.09392,26.62685 59.09392,59.472735 z"
       transform="matrix(1.0084935,0,0,1.0084926,14.176133,-0.63030862)" />
    <path
       sodipodi:nodetypes="csssc"
       inkscape:connector-curvature="0"
       id="path4973"
       d="m 84.495388,137.336 c 6.954616,4.58761 17.872212,9.12502 23.680282,17.06014 2.12918,2.90891 0.87731,6.28679 -1.11004,7.84745 -2.29687,1.80372 -6.48546,1.68468 -8.868834,-0.70551 -4.819575,-4.83277 -10.647614,-15.8785 -13.701432,-24.20179 z"
       style="fill:#e8ffd1;fill-opacity:1;stroke:#73d216;stroke-width:0.99999994px;stroke-linecap:butt;stroke-linejoin:miter;stroke-opacity:1" />
    <path
       style="fill:#d1e9ff;fill-opacity:1;stroke:#729fcf;stroke-width:1px;stroke-linecap:butt;stroke-linejoin:miter;stroke-opacity:1"
       d="m 105.35714,85.933609 c 5.35649,-8.690201 10.50528,-22.234341 20.00001,-29.642857 3.48064,-2.715868 7.65992,-1.306223 9.64285,1.071429 2.29178,2.747983 2.30076,7.884596 -0.53571,10.892857 -5.73575,6.083144 -19.0358,13.630545 -29.10715,17.678571 z"
       id="path4971"
       inkscape:connector-curvature="0"
       sodipodi:nodetypes="csssc" />
    <path
       style="fill:#ffd1d1;fill-opacity:1;stroke:#ef2929;stroke-width:1px;stroke-linecap:butt;stroke-linejoin:miter;stroke-opacity:1"
       d="m 67.321429,85.933609 c 0,0 -2.182422,-21.714276 -0.357143,-33.392857 0.535523,-3.426411 3.231935,-5.77307 5.714286,-5.357143 2.482351,0.415927 3.862091,2.994838 3.392857,6.428572 -1.680231,12.295493 -8.75,32.321428 -8.75,32.321428 z"
       id="path4969"
       inkscape:connector-curvature="0"
       sodipodi:nodetypes="csssc" />
    <path
       sodipodi:nodetypes="cc"
       style="fill:none;stroke:#c4a000;stroke-width:1px;stroke-linecap:butt;stroke-linejoin:miter;stroke-opacity:1"
       d="M 429.8301,51.380558 429.24204,104.3665"
       id="path5083"
       inkscape:connector-curvature="0" />
    <path
       style="color:#000000;fill:url(#linearGradient4931-8);fill-opacity:1;fill-rule:nonzero;stroke:#583701;stroke-width:1px;stroke-linecap:butt;stroke-linejoin:miter;stroke-miterlimit:4;stroke-opacity:1;stroke-dasharray:none;stroke-dashoffset:0;marker:none;visibility:visible;display:inline;overflow:visible;enable-background:accumulate"
       d="m 191.38216,86.469323 161.60715,36.428567 -1.78572,7.85715 -161.60714,-37.321431 c -1.6582,-2.857143 -0.55141,-5.714286 1.78571,-6.964286 z"
       id="path4983"
       inkscape:connector-curvature="0"
       sodipodi:nodetypes="ccccc" />
    <path
       id="path4880"
       style="fill:url(#linearGradient4931);fill-opacity:1;stroke:#583701;stroke-width:1px;stroke-linecap:butt;stroke-linejoin:miter;stroke-opacity:1"
       d="m 150.76526,138.67921 -26.26396,-0.50507 -13.13198,-2.52539 0.25254,3.03046 -18.182749,-2.77792 0,3.03046 -18.182746,-3.283 0,3.283 -17.643058,-2.29336 C 44.448169,134.09591 40.920729,120.03704 41.163716,112.41524 l 0.252538,0 c -0.242987,-7.6218 3.031915,-22.690818 16.197053,-25.233304 l 17.643058,-2.293355 0,3.282996 18.182746,-3.282996 0,3.030458 18.182749,-2.77792 -0.25254,3.030458 13.13198,-2.525382 26.26396,-0.505076 c 7.58863,6.137289 9.71263,16.221861 9.09138,26.769051 0.62125,10.54718 -1.50275,20.63175 -9.09138,26.76904 z"
       inkscape:connector-curvature="0"
       sodipodi:nodetypes="cccccccccccccccccccccc" />
    <path
       sodipodi:type="arc"
       style="color:#000000;fill:#8f5902;stroke:#583701;stroke-width:0.98643327;stroke-opacity:1;marker:none;visibility:visible;display:inline;overflow:visible;enable-background:accumulate"
       id="path4883"
       sodipodi:cx="148.9975"
       sodipodi:cy="111.78389"
       sodipodi:rx="9.5964489"
       sodipodi:ry="26.390236"
       d="m 158.59395,111.78389 c 0,14.57492 -4.29648,26.39024 -9.59645,26.39024 -5.29997,0 -9.59645,-11.81532 -9.59645,-26.39024 0,-14.574925 4.29648,-26.390236 9.59645,-26.390236 5.29997,0 9.59645,11.815311 9.59645,26.390236 z"
       transform="matrix(1.0139735,0,0,1.0135331,-0.78983574,-1.334216)" />
    <path
       style="fill:none;stroke:#c4a000;stroke-width:1px;stroke-linecap:butt;stroke-linejoin:miter;stroke-opacity:1"
       d="M 47.729708,45.492632 66.41753,85.898734"
       id="path4911"
       inkscape:connector-curvature="0" />
    <path
       style="fill:none;stroke:#fce94f;stroke-width:1px;stroke-linecap:butt;stroke-linejoin:miter;stroke-opacity:1"
       d="M 66.41753,86.656348 84.095199,137.66905 105.3084,86.151272"
       id="path4913"
       inkscape:connector-curvature="0" />
    <path
       style="fill:none;stroke:#c4a000;stroke-width:1;stroke-linecap:butt;stroke-linejoin:miter;stroke-miterlimit:4;stroke-opacity:1;stroke-dasharray:1, 1;stroke-dashoffset:0"
       d="m 83.842661,138.17413 -0.757614,14.14213"
       id="path4915"
       inkscape:connector-curvature="0" />
    <path
       style="fill:none;stroke:#c4a000;stroke-width:1;stroke-linecap:butt;stroke-linejoin:miter;stroke-miterlimit:4;stroke-opacity:1;stroke-dasharray:1, 1;stroke-dashoffset:0"
       d="m 104.80333,86.151272 -1.76777,-14.89975"
       id="path4917"
       inkscape:connector-curvature="0" />
    <path
       style="fill:none;stroke:#c4a000;stroke-width:1;stroke-linecap:butt;stroke-linejoin:miter;stroke-miterlimit:4;stroke-opacity:1;stroke-dasharray:1, 1;stroke-dashoffset:0"
       d="M 66.164992,85.646196 63.892149,70.746446"
       id="path4919"
       inkscape:connector-curvature="0" />
    <g
       id="g4897"
       transform="matrix(0.58255778,0.08967829,-0.08967829,0.58255778,23.176877,14.97858)">
      <path
         inkscape:transform-center-y="1.1483886"
         inkscape:transform-center-x="1.1483886"
         d="m 58.082638,34.887164 10.607636,-1.28868 -6.613821,8.392855 9.620424,4.650814 -10.101421,3.484817 5.578796,9.113708 -10.38189,-2.529625 -0.234061,10.683064 -7.366182,-7.74093 -5.972606,8.860622 -2.011764,-10.494544 -9.814889,4.224996 3.981375,-9.916214 -10.541016,-1.752037 8.710456,-6.189556 -7.920444,-7.172811 10.674028,-0.497758 -2.785187,-10.316268 9.248673,5.352075 3.234347,-10.184382 4.886928,9.502661 8.226999,-6.819027 z"
         inkscape:randomized="0"
         inkscape:rounded="0"
         inkscape:flatsided="false"
         sodipodi:arg2="-0.51214525"
         sodipodi:arg1="-0.79774458"
         sodipodi:r2="23.756041"
         sodipodi:r1="14.463784"
         sodipodi:cy="45.240093"
         sodipodi:cx="47.982246"
         sodipodi:sides="11"
         id="path4887"
         style="color:#000000;fill:#fce94f;fill-opacity:1;fill-rule:nonzero;stroke:#c4a000;stroke-width:1.69658351;stroke-linecap:butt;stroke-linejoin:miter;stroke-miterlimit:4;stroke-opacity:1;stroke-dasharray:none;stroke-dashoffset:0;marker:none;visibility:visible;display:inline;overflow:visible;enable-background:accumulate"
         sodipodi:type="star" />
      <path
         transform="matrix(1.1728395,0,0,1.1728395,-7.2699564,-7.5745292)"
         d="m 57.578693,44.861286 c 0,5.648655 -4.579139,10.227795 -10.227794,10.227795 -5.648655,0 -10.227795,-4.57914 -10.227795,-10.227795 0,-5.648655 4.57914,-10.227794 10.227795,-10.227794 5.648655,0 10.227794,4.579139 10.227794,10.227794 z"
         sodipodi:ry="10.227795"
         sodipodi:rx="10.227795"
         sodipodi:cy="44.861286"
         sodipodi:cx="47.350899"
         id="path4885"
         style="color:#000000;fill:url(#radialGradient4901);fill-opacity:1;fill-rule:nonzero;stroke:#c4a000;stroke-width:1.44656074;stroke-linecap:butt;stroke-linejoin:miter;stroke-miterlimit:4;stroke-opacity:1;stroke-dasharray:none;stroke-dashoffset:0;marker:none;visibility:visible;display:inline;overflow:visible;enable-background:accumulate"
         sodipodi:type="arc" />
    </g>
    <path
       sodipodi:type="star"
       style="color:#000000;fill:#c4a000;fill-opacity:1;fill-rule:nonzero;stroke:none;stroke-width:1.26785791;marker:none;visibility:visible;display:inline;overflow:visible;enable-background:accumulate"
       id="path4923"
       sodipodi:sides="3"
       sodipodi:cx="105.81348"
       sodipodi:cy="39.431717"
       sodipodi:r1="13.889598"
       sodipodi:r2="6.9447989"
       sodipodi:arg1="-1.5707963"
       sodipodi:arg2="-0.52359878"
       inkscape:flatsided="true"
       inkscape:rounded="0"
       inkscape:randomized="0"
       d="m 105.81348,25.542119 12.02874,20.834397 -24.057488,0 z"
       inkscape:transform-center-y="0.61827808"
       transform="matrix(-0.23845829,0.11850576,-0.19049371,-0.38331305,91.332447,71.048787)"
       inkscape:transform-center-x="0.7727046" />
    <text
       xml:space="preserve"
       style="font-size:12px;font-style:normal;font-variant:normal;font-weight:normal;font-stretch:normal;text-align:start;line-height:100%;letter-spacing:0px;word-spacing:0px;writing-mode:lr-tb;text-anchor:start;fill:#888a85;fill-opacity:1;stroke:none;font-family:Calibri;-inkscape-font-specification:Calibri"
       x="163.39285"
       y="115.57647"
       id="text4937"
       sodipodi:linespacing="100%"><tspan
         sodipodi:role="line"
         id="tspan4939"
         x="163.39285"
         y="115.57647">Tip</tspan></text>
    <text
       xml:space="preserve"
       style="font-size:12px;font-style:normal;font-variant:normal;font-weight:normal;font-stretch:normal;text-align:start;line-height:100%;letter-spacing:0px;word-spacing:0px;writing-mode:lr-tb;text-anchor:start;fill:#73d216;fill-opacity:1;stroke:none;font-family:Calibri;-inkscape-font-specification:Calibri"
       x="113.39286"
       y="162.36218"
       id="text4941"
       sodipodi:linespacing="100%"><tspan
         sodipodi:role="line"
         id="tspan4943"
         x="113.39286"
         y="162.36218">TT</tspan></text>
    <text
       xml:space="preserve"
       style="font-size:12px;font-style:normal;font-variant:normal;font-weight:normal;font-stretch:normal;text-align:start;line-height:100%;letter-spacing:0px;word-spacing:0px;writing-mode:lr-tb;text-anchor:start;fill:#3465a4;fill-opacity:1;stroke:none;font-family:Calibri;-inkscape-font-specification:Calibri"
       x="141.54367"
       y="62.548191"
       id="text4945"
       sodipodi:linespacing="100%"><tspan
         sodipodi:role="line"
         id="tspan4947"
         x="141.54367"
         y="62.548191">TRT</tspan></text>
    <text
       xml:space="preserve"
       style="font-size:12px;font-style:normal;font-variant:normal;font-weight:normal;font-stretch:normal;text-align:start;line-height:100%;letter-spacing:0px;word-spacing:0px;writing-mode:lr-tb;text-anchor:start;fill:#ef2929;fill-opacity:1;stroke:none;font-family:Calibri;-inkscape-font-specification:Calibri"
       x="80"
       y="51.290752"
       id="text4949"
       sodipodi:linespacing="100%"><tspan
         sodipodi:role="line"
         id="tspan4951"
         x="80"
         y="51.290752">R</tspan></text>
    <path
       style="fill:none;stroke:#cc0000;stroke-width:1px;stroke-linecap:butt;stroke-linejoin:miter;stroke-opacity:1"
       d="M 67.142857,86.112181 73.571429,40.755038"
       id="path4953"
       inkscape:connector-curvature="0" />
    <path
       style="fill:none;stroke:#3465a4;stroke-width:1px;stroke-linecap:butt;stroke-linejoin:miter;stroke-opacity:1"
       d="M 105.17857,85.755038 142.5,49.862181"
       id="path4955"
       inkscape:connector-curvature="0" />
    <path
       style="fill:none;stroke:#4e9a06;stroke-width:1px;stroke-linecap:butt;stroke-linejoin:miter;stroke-opacity:1"
       d="M 84.107143,137.89789 110.71429,166.6479"
       id="path4957"
       inkscape:connector-curvature="0" />
    <path
       inkscape:transform-center-x="0.77808264"
       transform="matrix(-0.23077221,0.06969885,-0.11203838,-0.37095795,103.8541,118.4046)"
       inkscape:transform-center-y="0.86891314"
       d="m 105.81348,25.542119 12.02874,20.834397 -24.057488,0 z"
       inkscape:randomized="0"
       inkscape:rounded="0"
       inkscape:flatsided="true"
       sodipodi:arg2="-0.52359878"
       sodipodi:arg1="-1.5707963"
       sodipodi:r2="6.9447989"
       sodipodi:r1="13.889598"
       sodipodi:cy="39.431717"
       sodipodi:cx="105.81348"
       sodipodi:sides="3"
       id="path4959"
       style="color:#000000;fill:#fce94f;fill-opacity:1;fill-rule:nonzero;stroke:none;stroke-width:1.26785791;marker:none;visibility:visible;display:inline;overflow:visible;enable-background:accumulate"
       sodipodi:type="star" />
    <path
       sodipodi:type="star"
       style="color:#000000;fill:#fce94f;fill-opacity:1;fill-rule:nonzero;stroke:none;stroke-width:1.26785791;marker:none;visibility:visible;display:inline;overflow:visible;enable-background:accumulate"
       id="path4961"
       sodipodi:sides="3"
       sodipodi:cx="105.81348"
       sodipodi:cy="39.431717"
       sodipodi:r1="13.889598"
       sodipodi:r2="6.9447989"
       sodipodi:arg1="-1.5707963"
       sodipodi:arg2="-0.52359878"
       inkscape:flatsided="true"
       inkscape:rounded="0"
       inkscape:randomized="0"
       d="m 105.81348,25.542119 12.02874,20.834397 -24.057488,0 z"
       inkscape:transform-center-y="-0.78823657"
       transform="matrix(0.22723525,0.07983065,-0.12832487,0.36527241,75.854367,89.015984)"
       inkscape:transform-center-x="0.89119076" />
    <path
       inkscape:transform-center-x="0.2541339"
       transform="matrix(0.16115234,0.02276465,-0.03659335,0.25904654,57.801126,28.88586)"
       inkscape:transform-center-y="-0.76259538"
       d="m 105.81348,25.542119 12.02874,20.834397 -24.057488,0 z"
       inkscape:randomized="0"
       inkscape:rounded="0"
       inkscape:flatsided="true"
       sodipodi:arg2="-0.52359878"
       sodipodi:arg1="-1.5707963"
       sodipodi:r2="6.9447989"
       sodipodi:r1="13.889598"
       sodipodi:cy="39.431717"
       sodipodi:cx="105.81348"
       sodipodi:sides="3"
       id="path4963"
       style="color:#000000;fill:#cc0000;fill-opacity:1;fill-rule:nonzero;stroke:none;stroke-width:1.26785791;marker:none;visibility:visible;display:inline;overflow:visible;enable-background:accumulate"
       sodipodi:type="star" />
    <path
       sodipodi:type="star"
       style="color:#000000;fill:#3465a4;fill-opacity:1;fill-rule:nonzero;stroke:none;stroke-width:1.26785791;marker:none;visibility:visible;display:inline;overflow:visible;enable-background:accumulate"
       id="path4965"
       sodipodi:sides="3"
       sodipodi:cx="105.81348"
       sodipodi:cy="39.431717"
       sodipodi:r1="13.889598"
       sodipodi:r2="6.9447989"
       sodipodi:arg1="-1.5707963"
       sodipodi:arg2="-0.52359878"
       inkscape:flatsided="true"
       inkscape:rounded="0"
       inkscape:randomized="0"
       d="m 105.81348,25.542119 12.02874,20.834397 -24.057488,0 z"
       inkscape:transform-center-y="0.02318793"
       transform="matrix(0.11735343,0.11276736,-0.18126945,0.18864139,136.89046,30.888555)"
       inkscape:transform-center-x="0.076369609" />
    <path
       inkscape:transform-center-x="0.069365307"
       transform="matrix(-0.11675959,0.11338211,-0.18225764,-0.18768681,130.27317,161.7342)"
       inkscape:transform-center-y="-0.030205554"
       d="m 105.81348,25.542119 12.02874,20.834397 -24.057488,0 z"
       inkscape:randomized="0"
       inkscape:rounded="0"
       inkscape:flatsided="true"
       sodipodi:arg2="-0.52359878"
       sodipodi:arg1="-1.5707963"
       sodipodi:r2="6.9447989"
       sodipodi:r1="13.889598"
       sodipodi:cy="39.431717"
       sodipodi:cx="105.81348"
       sodipodi:sides="3"
       id="path4967"
       style="color:#000000;fill:#4e9a06;fill-opacity:1;fill-rule:nonzero;stroke:none;stroke-width:1.26785791;marker:none;visibility:visible;display:inline;overflow:visible;enable-background:accumulate"
       sodipodi:type="star" />
    <path
       inkscape:transform-center-x="0.17555934"
       transform="matrix(-0.19623579,0.17999301,-0.28933224,-0.31544192,245.35856,70.43776)"
       inkscape:transform-center-y="0.012794057"
       d="m 105.81348,25.542119 12.02874,20.834397 -24.057488,0 z"
       inkscape:randomized="0"
       inkscape:rounded="0"
       inkscape:flatsided="true"
       sodipodi:arg2="-0.52359878"
       sodipodi:arg1="-1.5707963"
       sodipodi:r2="6.9447989"
       sodipodi:r1="13.889598"
       sodipodi:cy="39.431717"
       sodipodi:cx="105.81348"
       sodipodi:sides="3"
       id="path4977"
       style="color:#000000;fill:#c4a000;fill-opacity:1;fill-rule:nonzero;stroke:none;stroke-width:1.26785791;marker:none;visibility:visible;display:inline;overflow:visible;enable-background:accumulate"
       sodipodi:type="star" />
    <text
       sodipodi:linespacing="100%"
       id="text4979"
       y="141.6479"
       x="347.27499"
       style="font-size:12px;font-style:normal;font-variant:normal;font-weight:normal;font-stretch:normal;text-align:start;line-height:100%;letter-spacing:0px;word-spacing:0px;writing-mode:lr-tb;text-anchor:start;fill:#888a85;fill-opacity:1;stroke:none;font-family:Calibri;-inkscape-font-specification:Calibri"
       xml:space="preserve"><tspan
         y="141.6479"
         x="347.27499"
         id="tspan4981"
         sodipodi:role="line">Tip</tspan></text>
    <path
       sodipodi:type="arc"
       style="color:#000000;fill:#8f5902;fill-opacity:1;fill-rule:nonzero;stroke:#583701;stroke-width:1.25180125;stroke-linecap:butt;stroke-linejoin:miter;stroke-miterlimit:4;stroke-opacity:1;stroke-dasharray:none;stroke-dashoffset:0;marker:none;visibility:visible;display:inline;overflow:visible;enable-background:accumulate"
       id="path4985"
       sodipodi:cx="336.69644"
       sodipodi:cy="125.93361"
       sodipodi:rx="2.9464285"
       sodipodi:ry="5"
       d="m 339.64287,125.93361 c 0,2.76142 -1.31916,5 -2.94643,5 -1.62727,0 -2.94643,-2.23858 -2.94643,-5 0,-2.76142 1.31916,-5 2.94643,-5 1.62727,0 2.94643,2.23858 2.94643,5 z"
       transform="matrix(0.77982386,0.14731844,-0.14525582,0.79089727,108.04069,-22.375674)" />
    <path
       sodipodi:type="arc"
       style="color:#000000;fill:none;stroke:#ef2929;stroke-width:1.08570695px;stroke-linecap:butt;stroke-linejoin:miter;stroke-miterlimit:4;stroke-opacity:1;stroke-dasharray:none;stroke-dashoffset:0;marker:none;visibility:visible;display:inline;overflow:visible;enable-background:accumulate"
       id="path5043"
       sodipodi:cx="273.43567"
       sodipodi:cy="113.55166"
       sodipodi:rx="19.63484"
       sodipodi:ry="43.781158"
       d="m 293.07051,113.55166 c 0,24.17966 -8.79082,43.78116 -19.63484,43.78116 -10.84402,0 -19.63484,-19.6015 -19.63484,-43.78116 0,-24.179668 8.79082,-43.78116 19.63484,-43.78116 10.84402,0 19.63484,19.601492 19.63484,43.78116 z"
       transform="matrix(0.8943144,0.12876657,-0.13380921,0.92933671,57.982069,-28.890072)" />
    <path
       transform="matrix(0.93395577,0.12497768,-0.13974044,0.90199147,67.072237,-20.897749)"
       d="m 293.07051,113.55166 c 0,24.17966 -8.79082,43.78116 -19.63484,43.78116 -10.84402,0 -19.63484,-19.6015 -19.63484,-43.78116 0,-24.179668 8.79082,-43.78116 19.63484,-43.78116 10.84402,0 19.63484,19.601492 19.63484,43.78116 z"
       sodipodi:ry="43.781158"
       sodipodi:rx="19.63484"
       sodipodi:cy="113.55166"
       sodipodi:cx="273.43567"
       id="path5045"
       style="color:#000000;fill:none;stroke:#73d216;stroke-width:1.07840014px;stroke-linecap:butt;stroke-linejoin:miter;stroke-miterlimit:4;stroke-opacity:1;stroke-dasharray:none;stroke-dashoffset:0;marker:none;visibility:visible;display:inline;overflow:visible;enable-background:accumulate"
       sodipodi:type="arc" />
    <path
       sodipodi:type="arc"
       style="color:#000000;fill:none;stroke:#729fcf;stroke-width:1.15936494px;stroke-linecap:butt;stroke-linejoin:miter;stroke-miterlimit:4;stroke-opacity:1;stroke-dasharray:none;stroke-dashoffset:0;marker:none;visibility:visible;display:inline;overflow:visible;enable-background:accumulate"
       id="path5047"
       sodipodi:cx="273.43567"
       sodipodi:cy="113.55166"
       sodipodi:rx="19.63484"
       sodipodi:ry="43.781158"
       d="m 293.07051,113.55166 c 0,24.17966 -8.79082,43.78116 -19.63484,43.78116 -10.84402,0 -19.63484,-19.6015 -19.63484,-43.78116 0,-24.179668 8.79082,-43.78116 19.63484,-43.78116 10.84402,0 19.63484,19.601492 19.63484,43.78116 z"
       transform="matrix(0.83332767,0.12118879,-0.12468426,0.87464623,109.10347,-14.168117)" />
    <path
       style="fill:none;stroke:#729fcf;stroke-width:1px;stroke-linecap:butt;stroke-linejoin:miter;stroke-opacity:1"
       d="M 326.153,79.711549 232.33509,99.156985 315.1676,155.8518"
       id="path5055"
       inkscape:connector-curvature="0"
       sodipodi:nodetypes="ccc" />
    <path
       style="fill:none;stroke:#73d216;stroke-width:1px;stroke-linecap:butt;stroke-linejoin:miter;stroke-opacity:1"
       d="m 310.49564,76.049746 -78.53936,22.98097 63.38707,53.411814"
       id="path5053"
       inkscape:connector-curvature="0" />
    <path
       inkscape:connector-curvature="0"
       id="path4975"
       d="m 195.66412,57.263122 36.6613,41.852154"
       style="fill:none;stroke:#c4a000;stroke-width:1px;stroke-linecap:butt;stroke-linejoin:miter;stroke-opacity:1"
       sodipodi:nodetypes="cc" />
    <path
       style="fill:none;stroke:#ef2929;stroke-width:1px;stroke-linecap:butt;stroke-linejoin:miter;stroke-opacity:1"
       d="m 289.78751,71.504059 -57.83123,27.526657 44.0679,50.255094"
       id="path5051"
       inkscape:connector-curvature="0"
       sodipodi:nodetypes="ccc" />
    <text
       sodipodi:linespacing="100%"
       id="text5057"
       y="67.540756"
       x="282.27499"
       style="font-size:12px;font-style:normal;font-variant:normal;font-weight:normal;font-stretch:normal;text-align:start;line-height:100%;letter-spacing:0px;word-spacing:0px;writing-mode:lr-tb;text-anchor:start;fill:#ef2929;fill-opacity:1;stroke:none;font-family:Calibri;-inkscape-font-specification:Calibri"
       xml:space="preserve"><tspan
         y="67.540756"
         x="282.27499"
         id="tspan5059"
         sodipodi:role="line">R</tspan></text>
    <text
       sodipodi:linespacing="100%"
       id="text5061"
       y="71.469322"
       x="311.56073"
       style="font-size:12px;font-style:normal;font-variant:normal;font-weight:normal;font-stretch:normal;text-align:start;line-height:100%;letter-spacing:0px;word-spacing:0px;writing-mode:lr-tb;text-anchor:start;fill:#73d216;fill-opacity:1;stroke:none;font-family:Calibri;-inkscape-font-specification:Calibri"
       xml:space="preserve"><tspan
         y="71.469322"
         x="311.56073"
         id="tspan5063"
         sodipodi:role="line">TT</tspan></text>
    <text
       sodipodi:linespacing="100%"
       id="text5065"
       y="76.826469"
       x="331.02499"
       style="font-size:12px;font-style:normal;font-variant:normal;font-weight:normal;font-stretch:normal;text-align:start;line-height:100%;letter-spacing:0px;word-spacing:0px;writing-mode:lr-tb;text-anchor:start;fill:#3465a4;fill-opacity:1;stroke:none;font-family:Calibri;-inkscape-font-specification:Calibri"
       xml:space="preserve"><tspan
         y="76.826469"
         x="331.02499"
         id="tspan5067"
         sodipodi:role="line">TRT</tspan></text>
    <g
       id="g5069"
       transform="matrix(0.40147856,0.02663117,-0.02663117,0.40147856,411.70725,32.078517)">
      <path
         inkscape:transform-center-y="1.1483886"
         inkscape:transform-center-x="1.1483886"
         d="m 58.082638,34.887164 10.607636,-1.28868 -6.613821,8.392855 9.620424,4.650814 -10.101421,3.484817 5.578796,9.113708 -10.38189,-2.529625 -0.234061,10.683064 -7.366182,-7.74093 -5.972606,8.860622 -2.011764,-10.494544 -9.814889,4.224996 3.981375,-9.916214 -10.541016,-1.752037 8.710456,-6.189556 -7.920444,-7.172811 10.674028,-0.497758 -2.785187,-10.316268 9.248673,5.352075 3.234347,-10.184382 4.886928,9.502661 8.226999,-6.819027 z"
         inkscape:randomized="0"
         inkscape:rounded="0"
         inkscape:flatsided="false"
         sodipodi:arg2="-0.51214525"
         sodipodi:arg1="-0.79774458"
         sodipodi:r2="23.756041"
         sodipodi:r1="14.463784"
         sodipodi:cy="45.240093"
         sodipodi:cx="47.982246"
         sodipodi:sides="11"
         id="path5071"
         style="color:#000000;fill:#fce94f;fill-opacity:1;fill-rule:nonzero;stroke:#c4a000;stroke-width:2.4853313;stroke-linecap:butt;stroke-linejoin:miter;stroke-miterlimit:4;stroke-opacity:1;stroke-dasharray:none;stroke-dashoffset:0;marker:none;visibility:visible;display:inline;overflow:visible;enable-background:accumulate"
         sodipodi:type="star" />
      <path
         transform="matrix(1.1728395,0,0,1.1728395,-7.2699564,-7.5745292)"
         d="m 57.578693,44.861286 c 0,5.648655 -4.579139,10.227795 -10.227794,10.227795 -5.648655,0 -10.227795,-4.57914 -10.227795,-10.227795 0,-5.648655 4.57914,-10.227794 10.227795,-10.227794 5.648655,0 10.227794,4.579139 10.227794,10.227794 z"
         sodipodi:ry="10.227795"
         sodipodi:rx="10.227795"
         sodipodi:cy="44.861286"
         sodipodi:cx="47.350899"
         id="path5073"
         style="color:#000000;fill:url(#radialGradient5075);fill-opacity:1;fill-rule:nonzero;stroke:#c4a000;stroke-width:2.11907196;stroke-linecap:butt;stroke-linejoin:miter;stroke-miterlimit:4;stroke-opacity:1;stroke-dasharray:none;stroke-dashoffset:0;marker:none;visibility:visible;display:inline;overflow:visible;enable-background:accumulate"
         sodipodi:type="arc" />
    </g>
    <path
       sodipodi:type="star"
       style="color:#000000;fill:#c4a000;fill-opacity:1;fill-rule:nonzero;stroke:none;stroke-width:1.26785791;marker:none;visibility:visible;display:inline;overflow:visible;enable-background:accumulate"
       id="path5081"
       sodipodi:sides="3"
       sodipodi:cx="105.81348"
       sodipodi:cy="39.431717"
       sodipodi:r1="13.889598"
       sodipodi:r2="6.9447989"
       sodipodi:arg1="-1.5707963"
       sodipodi:arg2="-0.52359878"
       inkscape:flatsided="true"
       inkscape:rounded="0"
       inkscape:randomized="0"
       d="m 105.81348,25.542119 12.02874,20.834397 -24.057488,0 z"
       inkscape:transform-center-y="1.4591366"
       transform="matrix(-0.26624398,0.00448447,-0.00720862,-0.42797755,458.01968,87.894137)"
       inkscape:transform-center-x="0.050057481" />
    <path
       id="path5093"
       style="color:#000000;fill:#729fcf;fill-opacity:0.1254902;fill-rule:nonzero;stroke:#729fcf;stroke-width:1px;stroke-linecap:butt;stroke-linejoin:miter;stroke-miterlimit:4;stroke-opacity:1;stroke-dasharray:none;stroke-dashoffset:0;marker:none;visibility:visible;display:inline;overflow:visible;enable-background:accumulate"
       d="m 429.06229,104.71282 c 0,0 -1.2025,4.63968 -4.16688,2.77792 -3.48689,-2.18992 -0.63968,-6.28412 -1.76777,-9.217638 -1.33236,-3.46473 -8.50963,-9.45181 -11.74301,-16.28871 -0.81056,-1.713903 -1.89147,-6.117966 -0.25255,-7.071068 1.75741,-1.022012 4.05032,0.67189 5.3033,2.272844 4.7997,6.132651 9.9052,19.421554 12.75318,19.445436 2.95492,0.02478 8.47231,-13.557413 12.90911,-19.445436 1.25298,-1.600954 3.54589,-3.294856 5.3033,-2.272844 1.63892,0.953102 0.55801,5.357165 -0.25255,7.071068 -3.23338,6.8369 -10.41065,12.82398 -11.74301,16.28871 -1.12809,2.933518 1.71912,7.027718 -1.76777,9.217638 -2.65654,1.57631 -3.70275,-1.09641 -4.57535,-2.77792 z"
       inkscape:connector-curvature="0"
       sodipodi:nodetypes="csssssscssscc" />
    <path
       id="path5095"
       style="color:#000000;fill:#ef2929;fill-opacity:0.1254902;fill-rule:nonzero;stroke:#ef2929;stroke-width:1px;stroke-linecap:butt;stroke-linejoin:miter;stroke-miterlimit:4;stroke-opacity:1;stroke-dasharray:none;stroke-dashoffset:0;marker:none;visibility:visible;display:inline;overflow:visible;enable-background:accumulate"
       d="m 429.1693,107.11194 c 1.62238,7.66361 5.11344,13.02942 10.6066,12.12182 5.21554,-0.86173 6.51443,-8.42571 6.31346,-13.63705 -0.51851,-13.445278 -7.37164,-21.066116 -17.1726,-20.960668 -13.38169,0.143973 -16.17766,12.734438 -16.64826,20.960668 -0.20097,5.21134 1.15532,12.48031 6.31346,13.63705 5.07131,1.13727 9.09152,-4.19588 10.58734,-12.12182 z"
       inkscape:connector-curvature="0"
       sodipodi:nodetypes="cssscsc" />
    <path
       id="path5097"
       style="color:#000000;fill:#8ae234;fill-opacity:0.1254902;fill-rule:nonzero;stroke:#73d216;stroke-width:0.99999994px;stroke-linecap:butt;stroke-linejoin:miter;stroke-miterlimit:4;stroke-opacity:1;stroke-dasharray:none;stroke-dashoffset:0;marker:none;visibility:visible;display:inline;overflow:visible;enable-background:accumulate"
       d="m 429.04566,105.34417 c 2.78836,8.31809 8.70428,33.5964 8.33376,44.57298 -0.24238,7.1802 -3.08436,13.69141 -8.08122,13.63706 -6.13485,-0.0667 -8.15575,-7.65695 -8.31716,-13.63706 1.23672,-14.86123 4.12531,-30.78876 8.06462,-44.57298 z"
       inkscape:connector-curvature="0"
       sodipodi:nodetypes="csscc" />
    <path
       transform="matrix(0.21218889,0.01407507,-0.01407507,0.21218889,419.83789,93.410282)"
       d="m 57.578693,44.861286 c 0,5.648655 -4.579139,10.227795 -10.227794,10.227795 -5.648655,0 -10.227795,-4.57914 -10.227795,-10.227795 0,-5.648655 4.57914,-10.227794 10.227795,-10.227794 5.648655,0 10.227794,4.579139 10.227794,10.227794 z"
       sodipodi:ry="10.227795"
       sodipodi:rx="10.227795"
       sodipodi:cy="44.861286"
       sodipodi:cx="47.350899"
       id="path5103"
       style="color:#000000;fill:#fce94f;fill-opacity:1;fill-rule:nonzero;stroke:#c4a000;stroke-width:4.70244789;stroke-linecap:butt;stroke-linejoin:miter;stroke-miterlimit:4;stroke-opacity:1;stroke-dasharray:none;stroke-dashoffset:0;marker:none;visibility:visible;display:inline;overflow:visible;enable-background:accumulate"
       sodipodi:type="arc" />
    <text
       sodipodi:linespacing="100%"
       id="text5163"
       y="70.62941"
       x="449.38763"
       style="font-size:12px;font-style:normal;font-variant:normal;font-weight:normal;font-stretch:normal;text-align:start;line-height:100%;letter-spacing:0px;word-spacing:0px;writing-mode:lr-tb;text-anchor:start;fill:#3465a4;fill-opacity:1;stroke:none;font-family:Calibri;-inkscape-font-specification:Calibri"
       xml:space="preserve"><tspan
         y="70.62941"
         x="449.38763"
         id="tspan5165"
         sodipodi:role="line">TRT</tspan></text>
    <text
       sodipodi:linespacing="100%"
       id="text5167"
       y="106.5966"
       x="449.46329"
       style="font-size:12px;font-style:normal;font-variant:normal;font-weight:normal;font-stretch:normal;text-align:start;line-height:100%;letter-spacing:0px;word-spacing:0px;writing-mode:lr-tb;text-anchor:start;fill:#ef2929;fill-opacity:1;stroke:none;font-family:Calibri;-inkscape-font-specification:Calibri"
       xml:space="preserve"><tspan
         y="106.5966"
         x="449.46329"
         id="tspan5169"
         sodipodi:role="line">R</tspan></text>
    <text
       sodipodi:linespacing="100%"
       id="text5171"
       y="152.00812"
       x="441.94495"
       style="font-size:12px;font-style:normal;font-variant:normal;font-weight:normal;font-stretch:normal;text-align:start;line-height:100%;letter-spacing:0px;word-spacing:0px;writing-mode:lr-tb;text-anchor:start;fill:#73d216;fill-opacity:1;stroke:none;font-family:Calibri;-inkscape-font-specification:Calibri"
       xml:space="preserve"><tspan
         y="152.00812"
         x="441.94495"
         id="tspan5173"
         sodipodi:role="line">TT</tspan></text>
    <g
       transform="matrix(0.58449303,-0.07605038,0.07605038,0.58449303,163.60631,34.254533)"
       id="g4903">
      <path
         sodipodi:type="star"
         style="color:#000000;fill:#fce94f;fill-opacity:1;fill-rule:nonzero;stroke:#c4a000;stroke-width:1.69658351;stroke-linecap:butt;stroke-linejoin:miter;stroke-miterlimit:4;stroke-opacity:1;stroke-dasharray:none;stroke-dashoffset:0;marker:none;visibility:visible;display:inline;overflow:visible;enable-background:accumulate"
         id="path4905"
         sodipodi:sides="11"
         sodipodi:cx="47.982246"
         sodipodi:cy="45.240093"
         sodipodi:r1="14.463784"
         sodipodi:r2="23.756041"
         sodipodi:arg1="-0.79774458"
         sodipodi:arg2="-0.51214525"
         inkscape:flatsided="false"
         inkscape:rounded="0"
         inkscape:randomized="0"
         d="m 58.082638,34.887164 10.607636,-1.28868 -6.613821,8.392855 9.620424,4.650814 -10.101421,3.484817 5.578796,9.113708 -10.38189,-2.529625 -0.234061,10.683064 -7.366182,-7.74093 -5.972606,8.860622 -2.011764,-10.494544 -9.814889,4.224996 3.981375,-9.916214 -10.541016,-1.752037 8.710456,-6.189556 -7.920444,-7.172811 10.674028,-0.497758 -2.785187,-10.316268 9.248673,5.352075 3.234347,-10.184382 4.886928,9.502661 8.226999,-6.819027 z"
         inkscape:transform-center-x="1.1483886"
         inkscape:transform-center-y="1.1483886" />
      <path
         sodipodi:type="arc"
         style="color:#000000;fill:url(#radialGradient4909);fill-opacity:1;fill-rule:nonzero;stroke:#c4a000;stroke-width:1.44656074;stroke-linecap:butt;stroke-linejoin:miter;stroke-miterlimit:4;stroke-opacity:1;stroke-dasharray:none;stroke-dashoffset:0;marker:none;visibility:visible;display:inline;overflow:visible;enable-background:accumulate"
         id="path4907"
         sodipodi:cx="47.350899"
         sodipodi:cy="44.861286"
         sodipodi:rx="10.227795"
         sodipodi:ry="10.227795"
         d="m 57.578693,44.861286 c 0,5.648655 -4.579139,10.227795 -10.227794,10.227795 -5.648655,0 -10.227795,-4.57914 -10.227795,-10.227795 0,-5.648655 4.57914,-10.227794 10.227795,-10.227794 5.648655,0 10.227794,4.579139 10.227794,10.227794 z"
         transform="matrix(1.1728395,0,0,1.1728395,-7.2699564,-7.5745292)" />
    </g>
  </g>
</svg>
